<svg width="4510" height="3000" viewBox="0 0 4510 3000" fill="none" xmlns="http://www.w3.org/2000/svg">
<g clip-path="url(#clip0_1_2)">
<path d="M474.4 2605.6C474.4 2605.6 315.6 2395.9 391.4 2144.6C467.2 1893.3 662.1 1701.2 599.2 1410.4C524.6 1065 699.3 773.8 1008.8 811.4C1527.3 874.3 1900.1 482.4 2089.8 443.2C2651.9 327.1 2754.5 751.7 3057.9 793.1C3712.7 882.4 3915.1 1168.1 3891.7 1716.1C3884 1896.4 4385.4 2257.5 4097.5 2605.6H474.4Z" fill="#EDE3DD"/>
<path d="M800.7 775.7V720.3H2187V775.7H800.7Z" fill="#DBCAC2"/>
<path d="M800.7 1196.9V1141.5H2187V1196.9H800.7Z" fill="#DBCAC2"/>
<path d="M800.7 1618.2V1562.7H2187V1618.2H800.7Z" fill="#DBCAC2"/>
<path d="M845.1 1618.2H789.6V383.9H845.1V1618.2Z" fill="#DBCAC2"/>
<path d="M1301.7 1618.2H1246.2V383.9H1301.7V1618.2Z" fill="#DBCAC2"/>
<path d="M1758.2 1618.2H1702.8V383.9H1758.2V1618.2Z" fill="#DBCAC2"/>
<path d="M2214.8 1618.2H2159.3V383.9H2214.8V1618.2Z" fill="#DBCAC2"/>
<path d="M1237.2 1396.3C1223.3 1392.5 1208.6 1386.8 1194.2 1384.7C1171.5 1381.4 1163.5 1397.4 1155.2 1414.8C1148.9 1428.1 1144.1 1441.8 1138.5 1455.2H1155.2L1135.9 1572.8H1068.4L1049 1455.2H1074.2C1058.4 1442.9 1041.8 1432.7 1020.7 1432.7C999.9 1432.7 972.3 1437.7 961.3 1457.4C959.7 1460.4 954.5 1458.4 955.7 1455.1C967 1424.4 982.6 1403.9 1017.9 1408.1C1040.5 1410.8 1056.3 1420.8 1069.6 1435.2C1059.4 1406.2 1049.3 1377 1036.6 1349.3C1020.9 1315.2 995.7 1287 980.8 1252.3C979.7 1249.8 982.2 1246 985 1248.1C1015.3 1270.6 1043.7 1297.6 1058.5 1333.1C1074.6 1371.6 1072.4 1414.4 1084.3 1454.1C1084.57 1454.43 1084.83 1454.8 1085.1 1455.2H1093.5C1064.5 1291.8 1180.3 1184 1178.6 1187.7C1160.3 1226.2 1143.3 1264.5 1130.1 1303.1C1140.8 1298.8 1152.8 1296.3 1162.3 1293.7C1189.5 1286.2 1249.3 1284 1246.1 1284.8C1225.2 1290.4 1204.1 1295.5 1183.4 1301.6C1158.7 1308.9 1142.5 1321.4 1135.3 1346.9C1125.3 1382 1119.7 1418.9 1113.5 1455.2H1122.3C1125 1441.9 1127.9 1428.7 1131.5 1415.6C1136 1399.3 1139.5 1375.8 1150.8 1362.5C1170.9 1339 1241 1397.4 1237.2 1396.3V1396.3Z" fill="#DBCAC2"/>
<path d="M2598.5 848.5C2598.5 876.7 2575.7 899.5 2547.5 899.5C2519.4 899.5 2496.5 876.7 2496.5 848.5H2345.6C2449.2 770.5 2510.7 699.4 2535.6 667.7V423.2H2561.7V667.7C2586.7 699.4 2648.1 770.5 2751.7 848.5H2598.5Z" fill="#DBCAC2"/>
<path d="M3237.9 1118.2C3237.9 1146.4 3215 1169.2 3186.9 1169.2C3158.7 1169.2 3135.9 1146.4 3135.9 1118.2H2985C3088.6 1040.2 3150 969 3175 937.4V525.7H3201.1V937.4C3226.1 969 3287.5 1040.2 3391.1 1118.2H3237.9Z" fill="#DBCAC2"/>
<path fill-rule="evenodd" clip-rule="evenodd" d="M4257.4 837.8V1618.2H3477V837.8H4257.4ZM4140.7 954.5H3593.8V1501.4H4140.7V954.5Z" fill="#DBCAC2"/>
<path fill-rule="evenodd" clip-rule="evenodd" d="M3412.9 1253.7V1529.1H3137.4V1253.7H3412.9ZM3371.8 1294.9H3178.7V1487.9H3371.8V1294.9Z" fill="#DBCAC2"/>
<path fill-rule="evenodd" clip-rule="evenodd" d="M3075.2 1253.7V1529.1H2799.8V1253.7H3075.2ZM3034 1294.9H2841V1487.9H3034V1294.9Z" fill="#DBCAC2"/>
<path fill-rule="evenodd" clip-rule="evenodd" d="M3774.1 1487.1C3759.4 1513.1 3740.4 1535.9 3718.2 1554.8L3743.1 1613.2L3654.7 1660.2L3620.2 1606.9C3592.1 1614.7 3562.7 1617.8 3532.8 1615.4L3509.1 1674.2L3413.3 1644.9L3426.5 1582.9C3400.5 1568.2 3377.7 1549.2 3358.7 1527L3300.4 1551.8L3253.4 1463.5L3306.6 1429C3298.8 1400.9 3295.8 1371.4 3298.1 1341.6L3239.4 1317.8L3268.6 1222L3330.6 1235.3C3345.4 1209.2 3364.4 1186.4 3386.5 1167.5L3361.7 1109.2L3450.1 1062.2L3484.5 1115.4C3512.6 1107.6 3542.2 1104.6 3572 1106.9L3595.7 1048.1L3691.5 1077.4L3678.3 1139.4C3704.4 1154.2 3727.1 1173.2 3746 1195.3L3804.4 1170.5L3851.4 1258.9L3798.1 1293.3C3805.9 1321.4 3809 1350.9 3806.6 1380.8L3865.4 1404.5L3836.1 1500.3L3774.1 1487.1ZM3725.3 1414C3754.5 1318.6 3700.7 1217.5 3605.2 1188.3C3509.8 1159.1 3408.7 1212.9 3379.5 1308.3C3350.4 1403.8 3404.1 1504.9 3499.6 1534.1C3595 1563.3 3696.1 1509.5 3725.3 1414Z" fill="#474747"/>
<path d="M3278.5 1336L3236.6 1319.1L3258.7 1246.9L3263 1248.2L3242.1 1316.5L3280.2 1331.9L3278.5 1336Z" fill="#312113"/>
<path d="M3415.4 1645.4L3411.1 1644.5L3424 1584.1C3394.1 1569 3371.2 1543.7 3371 1543.5L3374.3 1540.5C3374.5 1540.8 3397.7 1566.2 3427.5 1580.9L3429 1581.7L3415.4 1645.4Z" fill="#312113"/>
<path d="M3654.2 1513.2L3651.7 1509.6C3768 1427.9 3721.4 1303.4 3720.9 1302.1L3725 1300.5C3725.5 1301.8 3773.4 1429.5 3654.2 1513.2V1513.2Z" fill="#312113"/>
<path d="M3805 1341.8C3801.8 1315.7 3796.1 1294.1 3796 1293.9L3795.6 1292.3L3815.1 1279.7L3817.5 1283.4L3800.7 1294.3C3802.1 1299.8 3806.6 1318.9 3809.4 1341.2L3805 1341.8Z" fill="#312113"/>
<path fill-rule="evenodd" clip-rule="evenodd" d="M3536.5 1669.8L3436.8 1639.3L3450.1 1576.9C3442.6 1572.7 3407.8 1552.3 3384 1522.5L3325.4 1547.5L3276.5 1455.5L3330 1420.8C3327.8 1413 3318.5 1377.6 3321.8 1335.7L3262.6 1311.9L3293.1 1212.2L3355.5 1225.5C3360.2 1217.4 3383.5 1178.4 3409.9 1159.4L3384.9 1100.8L3476.9 1051.9L3511.5 1105.3C3519.1 1102.7 3550.9 1092.9 3596.7 1097.2L3620.6 1038L3720.3 1068.5L3706.9 1130.9C3714.6 1135.2 3750.1 1155.8 3773 1185.3L3831.6 1160.3L3880.5 1252.3L3827 1287C3829.5 1294.8 3839.5 1329.4 3835.2 1372.1L3894.4 1396L3863.9 1495.7L3801.5 1482.4C3797.7 1489.7 3779.6 1521.8 3747.1 1548.3L3772.1 1607L3680.1 1655.9L3645.5 1602.5C3637.7 1605.3 3603.9 1615.9 3560.3 1610.7L3536.5 1669.8ZM3441.9 1636.3L3533.9 1664.4L3557.5 1605.8L3559.2 1606.1C3608.6 1612.5 3645.2 1597.9 3645.6 1597.8L3647.3 1597.1L3681.7 1650.1L3766.5 1605L3741.8 1547L3743.1 1545.9C3780 1516.4 3798.2 1479.2 3798.4 1478.9L3799.2 1477.3L3860.9 1490.5L3889 1398.5L3830.5 1374.9L3830.7 1373.3C3835.9 1325 3822.5 1287.1 3822.4 1286.7L3821.8 1285.1L3874.8 1250.8L3829.7 1165.9L3771.6 1190.7L3770.6 1189.3C3745.7 1156.3 3703.9 1134.2 3703.5 1134L3702 1133.2L3715.2 1071.5L3623.2 1043.4L3599.6 1101.9L3597.9 1101.7C3546.5 1096.5 3511.8 1109.9 3511.5 1110L3509.8 1110.7L3475.4 1057.6L3390.6 1102.7L3415.3 1160.9L3413.9 1161.9C3385.2 1181.7 3358.9 1228.5 3358.6 1229L3357.8 1230.4L3296.1 1217.3L3268 1309.3L3326.5 1332.8L3326.4 1334.5C3322.3 1381.6 3334.6 1420.7 3334.7 1421.1L3335.2 1422.7L3282.3 1457L3327.4 1541.9L3385.5 1517.1L3386.5 1518.5C3412.5 1551.9 3453.2 1573.6 3453.6 1573.8L3455.1 1574.6L3441.9 1636.3Z" fill="#312113"/>
<path fill-rule="evenodd" clip-rule="evenodd" d="M3578.5 1537C3477.5 1537 3395.4 1454.9 3395.4 1353.9C3395.4 1252.9 3477.5 1170.8 3578.5 1170.8C3679.5 1170.8 3761.6 1252.9 3761.6 1353.9C3761.6 1454.9 3679.5 1537 3578.5 1537ZM3578.5 1175.2C3480 1175.2 3399.8 1255.4 3399.8 1353.9C3399.8 1452.5 3480 1532.6 3578.5 1532.6C3677.1 1532.6 3757.2 1452.5 3757.2 1353.9C3757.2 1255.4 3677.1 1175.2 3578.5 1175.2Z" fill="#312113"/>
<path fill-rule="evenodd" clip-rule="evenodd" d="M1841.1 2136.6C1826.7 2162 1808.1 2184.3 1786.5 2202.8L1810.7 2259.8L1724.4 2305.7L1690.8 2253.7C1663.3 2261.3 1634.6 2264.3 1605.4 2262L1582.2 2319.4L1488.7 2290.8L1501.6 2230.3C1476.2 2215.9 1453.9 2197.3 1435.4 2175.7L1378.4 2199.9L1332.5 2113.6L1384.5 2080C1376.9 2052.5 1374 2023.6 1376.2 1994.6L1318.8 1971.4L1347.4 1877.8L1408 1890.8C1422.4 1865.3 1440.9 1843.1 1462.6 1824.6L1438.3 1767.6L1524.6 1721.7L1558.3 1773.7C1585.7 1766.1 1614.6 1763.2 1643.7 1765.4L1666.8 1708L1760.4 1736.6L1747.5 1797.2C1773 1811.6 1795.1 1830.1 1813.6 1851.7L1870.6 1827.5L1916.5 1913.8L1864.5 1947.4C1872.1 1974.9 1875.1 2003.7 1872.8 2032.9L1930.2 2056L1901.6 2149.6L1841.1 2136.6ZM1793.4 2065.2C1821.9 1972 1769.4 1873.3 1676.2 1844.8C1583 1816.3 1484.3 1868.8 1455.8 1962C1427.3 2055.2 1479.7 2154 1573 2182.4C1666.2 2211 1764.9 2158.5 1793.4 2065.2Z" fill="#474747"/>
<path d="M1357 1989.1L1316.2 1972.7L1337.7 1902.1L1341.9 1903.4L1321.5 1970.1L1358.7 1985.1L1357 1989.1Z" fill="#312113"/>
<path d="M1490.8 2291.3L1486.5 2290.4L1499.1 2231.4C1470 2216.6 1447.6 2192 1447.4 2191.7L1450.6 2188.8C1450.8 2189.1 1473.4 2214 1502.5 2228.3L1504 2229.1L1490.8 2291.3Z" fill="#312113"/>
<path d="M1724 2162.2L1721.5 2158.6C1835.1 2078.8 1789.6 1957.3 1789.1 1956L1793.1 1954.5C1793.6 1955.7 1840.4 2080.4 1724 2162.2Z" fill="#312113"/>
<path d="M1871.3 1994.8C1868.1 1969.3 1862.5 1948.2 1862.4 1948L1862 1946.5L1881.1 1934.1L1883.5 1937.8L1867 1948.4C1868.3 1953.7 1872.8 1972.4 1875.6 1994.2L1871.3 1994.8Z" fill="#312113"/>
<path fill-rule="evenodd" clip-rule="evenodd" d="M1609 2315.1L1511.6 2285.4L1524.6 2224.4C1517.3 2220.3 1483.3 2200.4 1460.1 2171.3L1402.8 2195.7L1355.1 2105.9L1407.4 2072C1405.2 2064.3 1396.1 2029.8 1399.4 1988.9L1341.6 1965.5L1371.3 1868.2L1432.3 1881.2C1436.8 1873.3 1459.6 1835.2 1485.3 1816.6L1461 1759.4L1550.8 1711.7L1584.6 1763.9C1592 1761.3 1623.1 1751.7 1667.8 1755.9L1691.1 1698.1L1788.5 1727.9L1775.5 1788.8C1782.9 1793 1817.6 1813.2 1839.9 1842L1897.2 1817.6L1945 1907.4L1892.7 1941.2C1895.2 1948.9 1904.9 1982.7 1900.7 2024.4L1958.5 2047.7L1928.8 2145L1867.8 2132.1C1864.1 2139.2 1846.4 2170.6 1814.7 2196.5L1839.1 2253.8L1749.3 2301.6L1715.4 2249.4C1707.8 2252.1 1674.8 2262.5 1632.2 2257.4L1609 2315.1ZM1516.7 2282.4L1606.5 2309.8L1629.6 2252.6L1631.2 2252.8C1679.4 2259.1 1715.2 2244.9 1715.6 2244.7L1717.2 2244.1L1750.8 2295.9L1833.7 2251.8L1809.5 2195.1L1810.8 2194.1C1846.8 2165.3 1864.7 2129 1864.8 2128.6L1865.6 2127.1L1925.9 2140L1953.3 2050.2L1896.2 2027.1L1896.4 2025.5C1901.5 1978.4 1888.4 1941.4 1888.2 1941L1887.6 1939.4L1939.4 1905.9L1895.4 1823L1838.6 1847.2L1837.6 1845.8C1813.3 1813.6 1772.5 1792 1772.1 1791.8L1770.7 1791.1L1783.5 1730.8L1693.7 1703.3L1670.7 1760.5L1669.1 1760.3C1618.9 1755.2 1584.9 1768.3 1584.6 1768.4L1583 1769.1L1549.4 1717.3L1466.5 1761.3L1490.7 1818.1L1489.3 1819.1C1461.3 1838.4 1435.6 1884.2 1435.3 1884.6L1434.5 1886L1374.3 1873.2L1346.9 1963L1404 1986L1403.8 1987.6C1399.8 2033.7 1411.9 2071.8 1412 2072.2L1412.5 2073.8L1360.8 2107.3L1404.9 2190.1L1461.6 2166L1462.6 2167.3C1487.9 2199.9 1527.7 2221.1 1528.1 2221.3L1529.5 2222.1L1516.7 2282.4Z" fill="#312113"/>
<path fill-rule="evenodd" clip-rule="evenodd" d="M1650 2185.4C1551.4 2185.4 1471.2 2105.2 1471.2 2006.6C1471.2 1908 1551.4 1827.8 1650 1827.8C1748.6 1827.8 1828.9 1908 1828.9 2006.6C1828.9 2105.2 1748.6 2185.4 1650 2185.4ZM1650 1832.1C1553.8 1832.1 1475.5 1910.4 1475.5 2006.6C1475.5 2102.9 1553.8 2181.2 1650 2181.2C1746.3 2181.2 1824.6 2102.9 1824.6 2006.6C1824.6 1910.4 1746.3 1832.1 1650 1832.1V1832.1Z" fill="#312113"/>
<path d="M3086.2 2537.7V2128.2H3125.4V2537.7C3125.4 2545.4 3119.2 2551.7 3111.4 2551.7H3100.2C3092.5 2551.7 3086.2 2545.4 3086.2 2537.7Z" fill="white"/>
<path d="M3051.8 2104.3H3159.8C3165.2 2104.3 3170.1 2107.4 3172.4 2112.3L3172.9 2113.4C3177.1 2122.6 3170.4 2133 3160.3 2133H3051.3C3041.2 2133 3034.5 2122.6 3038.8 2113.4L3039.3 2112.3C3041.5 2107.4 3046.4 2104.3 3051.8 2104.3Z" fill="white"/>
<path fill-rule="evenodd" clip-rule="evenodd" d="M3037.6 2128C3034.6 2123.3 3034.2 2117.4 3036.5 2112.4L3037 2111.3C3039.7 2105.5 3045.5 2101.8 3051.8 2101.8H3159.8C3166.2 2101.8 3172 2105.5 3174.6 2111.3L3175.1 2112.4C3177.5 2117.4 3177.1 2123.3 3174 2128C3171 2132.7 3165.9 2135.5 3160.3 2135.5H3051.3C3045.7 2135.5 3040.6 2132.7 3037.6 2128V2128ZM3051.8 2106.8C3047.4 2106.8 3043.4 2109.4 3041.5 2113.4L3041 2114.4C3039.4 2118 3039.7 2122 3041.8 2125.3C3043.9 2128.6 3047.4 2130.5 3051.3 2130.5H3160.3C3164.2 2130.5 3167.8 2128.6 3169.9 2125.3C3171.9 2122 3172.2 2118 3170.6 2114.4L3170.1 2113.4C3168.3 2109.4 3164.2 2106.8 3159.8 2106.8H3051.8Z" fill="#312113"/>
<path d="M3453 1861.3C3433.1 1977.5 3369.4 2112.7 3102.9 2112.7C2836.3 2112.7 2737.4 2008.3 2737.4 1980.8C2737.4 1953.3 2843.4 1993 2901.6 1922.6C2959.8 1852.2 2865 1597.5 2865 1484.8C2865 1372.2 3175.5 1377.7 3266.1 1377.7C3312.7 1377.7 3395.9 1370.8 3450.2 1460.1C3501.5 1544.4 3475 1733 3453 1861.3Z" fill="#904823"/>
<path d="M3102.9 2112.7C2836.3 2112.7 2737.4 2008.3 2737.4 1980.8C2737.4 1953.3 2843.4 1993 2901.6 1922.6C2959.8 1852.2 2865 1597.5 2865 1484.8C2865 1405.9 3017.5 1384.9 3139.9 1379.5C3268.6 1379.5 3303.7 1530.9 3313.4 1560.8C3325.2 1597.5 3282.7 1620.1 3286.3 1658.1C3290.1 1697.9 3310.8 1699.2 3314.9 1738.8C3318.8 1777.3 3285.5 1818.7 3297.4 1855.8C3308.5 1890.1 3358 1896.6 3361.3 1932.9C3364.3 1966.1 3121.5 2112.7 3102.9 2112.7Z" fill="#6C3112"/>
<path d="M2846.4 2007.9L2847.8 2003.1C3029.4 2060.4 3155 2044.4 3228.4 2021C3307.9 1995.6 3345 1956.1 3345.4 1955.7L3349 1959.1C3348.7 1959.5 3310.9 1999.7 3230.3 2025.6C3193.6 2037.4 3143.9 2047.3 3080.9 2047.3C3016.7 2047.3 2938.7 2037 2846.4 2007.9V2007.9Z" fill="#312113"/>
<path fill-rule="evenodd" clip-rule="evenodd" d="M3304.3 1846.3C3304.3 1838 3311 1831.3 3319.3 1831.3C3327.5 1831.3 3334.2 1838 3334.2 1846.3C3334.2 1854.5 3327.5 1861.2 3319.3 1861.2C3311 1861.2 3304.3 1854.5 3304.3 1846.3ZM3309.3 1846.3C3309.3 1851.8 3313.8 1856.3 3319.3 1856.3C3324.8 1856.3 3329.3 1851.8 3329.3 1846.3C3329.3 1840.8 3324.8 1836.3 3319.3 1836.3C3313.8 1836.3 3309.3 1840.8 3309.3 1846.3Z" fill="#312113"/>
<path fill-rule="evenodd" clip-rule="evenodd" d="M3155.5 1846.3C3155.5 1838 3162.2 1831.3 3170.4 1831.3C3178.7 1831.3 3185.4 1838 3185.4 1846.3C3185.4 1854.5 3178.7 1861.2 3170.4 1861.2C3162.2 1861.2 3155.5 1854.5 3155.5 1846.3ZM3160.4 1846.3C3160.4 1851.8 3164.9 1856.3 3170.4 1856.3C3175.9 1856.3 3180.4 1851.8 3180.4 1846.3C3180.4 1840.8 3175.9 1836.3 3170.4 1836.3C3164.9 1836.3 3160.4 1840.8 3160.4 1846.3Z" fill="#312113"/>
<path fill-rule="evenodd" clip-rule="evenodd" d="M3006.6 1846.3C3006.6 1838 3013.3 1831.3 3021.6 1831.3C3029.8 1831.3 3036.6 1838 3036.6 1846.3C3036.6 1854.5 3029.8 1861.2 3021.6 1861.2C3013.3 1861.2 3006.6 1854.5 3006.6 1846.3ZM3011.6 1846.3C3011.6 1851.8 3016.1 1856.3 3021.6 1856.3C3027.1 1856.3 3031.6 1851.8 3031.6 1846.3C3031.6 1840.8 3027.1 1836.3 3021.6 1836.3C3016.1 1836.3 3011.6 1840.8 3011.6 1846.3Z" fill="#312113"/>
<path fill-rule="evenodd" clip-rule="evenodd" d="M3080.1 1917C3080.1 1908.8 3086.8 1902 3095.1 1902C3103.3 1902 3110.1 1908.8 3110.1 1917C3110.1 1925.3 3103.3 1932 3095.1 1932C3086.8 1932 3080.1 1925.3 3080.1 1917ZM3085.1 1917C3085.1 1922.5 3089.6 1927 3095.1 1927C3100.6 1927 3105.1 1922.5 3105.1 1917C3105.1 1911.5 3100.6 1907 3095.1 1907C3089.6 1907 3085.1 1911.5 3085.1 1917Z" fill="#312113"/>
<path fill-rule="evenodd" clip-rule="evenodd" d="M3239.7 1754.8C3239.7 1746.5 3246.4 1739.8 3254.7 1739.8C3262.9 1739.8 3269.7 1746.5 3269.7 1754.8C3269.7 1763 3262.9 1769.8 3254.7 1769.8C3246.4 1769.8 3239.7 1763 3239.7 1754.8ZM3244.7 1754.8C3244.7 1760.3 3249.2 1764.8 3254.7 1764.8C3260.2 1764.8 3264.7 1760.3 3264.7 1754.8C3264.7 1749.3 3260.2 1744.8 3254.7 1744.8C3249.2 1744.8 3244.7 1749.3 3244.7 1754.8Z" fill="#312113"/>
<path fill-rule="evenodd" clip-rule="evenodd" d="M3397.3 1754.8C3397.3 1746.5 3404 1739.8 3412.2 1739.8C3420.5 1739.8 3427.2 1746.5 3427.2 1754.8C3427.2 1763 3420.5 1769.8 3412.2 1769.8C3404 1769.8 3397.3 1763 3397.3 1754.8ZM3402.2 1754.8C3402.2 1760.3 3406.7 1764.8 3412.2 1764.8C3417.7 1764.8 3422.2 1760.3 3422.2 1754.8C3422.2 1749.3 3417.7 1744.8 3412.2 1744.8C3406.7 1744.8 3402.2 1749.3 3402.2 1754.8Z" fill="#312113"/>
<path fill-rule="evenodd" clip-rule="evenodd" d="M3090.9 1754.8C3090.9 1746.5 3097.6 1739.8 3105.9 1739.8C3114.1 1739.8 3120.8 1746.5 3120.8 1754.8C3120.8 1763 3114.1 1769.8 3105.9 1769.8C3097.6 1769.8 3090.9 1763 3090.9 1754.8ZM3095.9 1754.8C3095.9 1760.3 3100.3 1764.8 3105.9 1764.8C3111.4 1764.8 3115.8 1760.3 3115.8 1754.8C3115.8 1749.3 3111.4 1744.8 3105.9 1744.8C3100.3 1744.8 3095.9 1749.3 3095.9 1754.8Z" fill="#312113"/>
<path fill-rule="evenodd" clip-rule="evenodd" d="M2942 1754.8C2942 1746.5 2948.8 1739.8 2957 1739.8C2965.3 1739.8 2972 1746.5 2972 1754.8C2972 1763 2965.3 1769.8 2957 1769.8C2948.8 1769.8 2942 1763 2942 1754.8ZM2947 1754.8C2947 1760.3 2951.5 1764.8 2957 1764.8C2962.5 1764.8 2967 1760.3 2967 1754.8C2967 1749.3 2962.5 1744.8 2957 1744.8C2951.5 1744.8 2947 1749.3 2947 1754.8Z" fill="#312113"/>
<path fill-rule="evenodd" clip-rule="evenodd" d="M3304.3 1663.3C3304.3 1655.1 3311 1648.3 3319.3 1648.3C3327.5 1648.3 3334.2 1655.1 3334.2 1663.3C3334.2 1671.6 3327.5 1678.3 3319.3 1678.3C3311 1678.3 3304.3 1671.6 3304.3 1663.3ZM3309.3 1663.3C3309.3 1668.8 3313.8 1673.3 3319.3 1673.3C3324.8 1673.3 3329.3 1668.8 3329.3 1663.3C3329.3 1657.8 3324.8 1653.3 3319.3 1653.3C3313.8 1653.3 3309.3 1657.8 3309.3 1663.3Z" fill="#312113"/>
<path fill-rule="evenodd" clip-rule="evenodd" d="M3155.5 1663.3C3155.5 1655.1 3162.2 1648.3 3170.4 1648.3C3178.7 1648.3 3185.4 1655.1 3185.4 1663.3C3185.4 1671.6 3178.7 1678.3 3170.4 1678.3C3162.2 1678.3 3155.5 1671.6 3155.5 1663.3ZM3160.4 1663.3C3160.4 1668.8 3164.9 1673.3 3170.4 1673.3C3175.9 1673.3 3180.4 1668.8 3180.4 1663.3C3180.4 1657.8 3175.9 1653.3 3170.4 1653.3C3164.9 1653.3 3160.4 1657.8 3160.4 1663.3Z" fill="#312113"/>
<path fill-rule="evenodd" clip-rule="evenodd" d="M3006.6 1663.3C3006.6 1655.1 3013.3 1648.3 3021.6 1648.3C3029.8 1648.3 3036.6 1655.1 3036.6 1663.3C3036.6 1671.6 3029.8 1678.3 3021.6 1678.3C3013.3 1678.3 3006.6 1671.6 3006.6 1663.3ZM3011.6 1663.3C3011.6 1668.8 3016.1 1673.3 3021.6 1673.3C3027.1 1673.3 3031.6 1668.8 3031.6 1663.3C3031.6 1657.8 3027.1 1653.3 3021.6 1653.3C3016.1 1653.3 3011.6 1657.8 3011.6 1663.3Z" fill="#312113"/>
<path fill-rule="evenodd" clip-rule="evenodd" d="M3239.7 1571.8C3239.7 1563.6 3246.4 1556.9 3254.7 1556.9C3262.9 1556.9 3269.7 1563.6 3269.7 1571.8C3269.7 1580.1 3262.9 1586.8 3254.7 1586.8C3246.4 1586.8 3239.7 1580.1 3239.7 1571.8ZM3244.7 1571.8C3244.7 1577.3 3249.2 1581.8 3254.7 1581.8C3260.2 1581.8 3264.7 1577.3 3264.7 1571.8C3264.7 1566.3 3260.2 1561.8 3254.7 1561.8C3249.2 1561.8 3244.7 1566.3 3244.7 1571.8Z" fill="#312113"/>
<path fill-rule="evenodd" clip-rule="evenodd" d="M3397.3 1571.8C3397.3 1563.6 3404 1556.9 3412.2 1556.9C3420.5 1556.9 3427.2 1563.6 3427.2 1571.8C3427.2 1580.1 3420.5 1586.8 3412.2 1586.8C3404 1586.8 3397.3 1580.1 3397.3 1571.8ZM3402.2 1571.8C3402.2 1577.3 3406.7 1581.8 3412.2 1581.8C3417.7 1581.8 3422.2 1577.3 3422.2 1571.8C3422.2 1566.3 3417.7 1561.8 3412.2 1561.8C3406.7 1561.8 3402.2 1566.3 3402.2 1571.8Z" fill="#312113"/>
<path fill-rule="evenodd" clip-rule="evenodd" d="M3090.9 1571.8C3090.9 1563.6 3097.6 1556.9 3105.9 1556.9C3114.1 1556.9 3120.8 1563.6 3120.8 1571.8C3120.8 1580.1 3114.1 1586.8 3105.9 1586.8C3097.6 1586.8 3090.9 1580.1 3090.9 1571.8ZM3095.9 1571.8C3095.9 1577.3 3100.3 1581.8 3105.9 1581.8C3111.4 1581.8 3115.8 1577.3 3115.8 1571.8C3115.8 1566.3 3111.4 1561.8 3105.9 1561.8C3100.3 1561.8 3095.9 1566.3 3095.9 1571.8Z" fill="#312113"/>
<path fill-rule="evenodd" clip-rule="evenodd" d="M2942 1571.8C2942 1563.6 2948.8 1556.9 2957 1556.9C2965.3 1556.9 2972 1563.6 2972 1571.8C2972 1580.1 2965.3 1586.8 2957 1586.8C2948.8 1586.8 2942 1580.1 2942 1571.8ZM2947 1571.8C2947 1577.3 2951.5 1581.8 2957 1581.8C2962.5 1581.8 2967 1577.3 2967 1571.8C2967 1566.3 2962.5 1561.8 2957 1561.8C2951.5 1561.8 2947 1566.3 2947 1571.8Z" fill="#312113"/>
<path fill-rule="evenodd" clip-rule="evenodd" d="M3304.3 1458.8C3304.3 1450.6 3311 1443.9 3319.3 1443.9C3327.5 1443.9 3334.2 1450.6 3334.2 1458.8C3334.2 1467.1 3327.5 1473.8 3319.3 1473.8C3311 1473.8 3304.3 1467.1 3304.3 1458.8ZM3309.3 1458.8C3309.3 1464.3 3313.8 1468.8 3319.3 1468.8C3324.8 1468.8 3329.3 1464.3 3329.3 1458.8C3329.3 1453.3 3324.8 1448.8 3319.3 1448.8C3313.8 1448.8 3309.3 1453.3 3309.3 1458.8Z" fill="#312113"/>
<path fill-rule="evenodd" clip-rule="evenodd" d="M3155.5 1458.8C3155.5 1450.6 3162.2 1443.9 3170.4 1443.9C3178.7 1443.9 3185.4 1450.6 3185.4 1458.8C3185.4 1467.1 3178.7 1473.8 3170.4 1473.8C3162.2 1473.8 3155.5 1467.1 3155.5 1458.8ZM3160.4 1458.8C3160.4 1464.3 3164.9 1468.8 3170.4 1468.8C3175.9 1468.8 3180.4 1464.3 3180.4 1458.8C3180.4 1453.3 3175.9 1448.8 3170.4 1448.8C3164.9 1448.8 3160.4 1453.3 3160.4 1458.8Z" fill="#312113"/>
<path fill-rule="evenodd" clip-rule="evenodd" d="M3006.6 1458.8C3006.6 1450.6 3013.3 1443.9 3021.6 1443.9C3029.8 1443.9 3036.6 1450.6 3036.6 1458.8C3036.6 1467.1 3029.8 1473.8 3021.6 1473.8C3013.3 1473.8 3006.6 1467.1 3006.6 1458.8ZM3011.6 1458.8C3011.6 1464.3 3016.1 1468.8 3021.6 1468.8C3027.1 1468.8 3031.6 1464.3 3031.6 1458.8C3031.6 1453.3 3027.1 1448.8 3021.6 1448.8C3016.1 1448.8 3011.6 1453.3 3011.6 1458.8Z" fill="#312113"/>
<path d="M3094.4 2133.8H3099.4V2533.6H3094.4V2133.8Z" fill="#312113"/>
<path d="M3004.2 2566.9C3004.2 2547.3 3020.2 2531.4 3039.8 2531.4H3171.8C3191.4 2531.4 3207.3 2547.3 3207.3 2566.9V2590.3H3202.3V2566.9C3202.3 2550.1 3188.6 2536.4 3171.8 2536.4H3039.8C3022.9 2536.4 3009.2 2550.1 3009.2 2566.9V2594.8H3004.2V2566.9Z" fill="#312113"/>
<path d="M2953.5 2566.9C2953.5 2547.3 2969.4 2531.4 2989 2531.4H3222.5C3242.1 2531.4 3258.1 2547.3 3258.1 2566.9V2590.3H3253.1V2566.9C3253.1 2550.1 3239.4 2536.4 3222.5 2536.4H2989C2972.1 2536.4 2958.4 2550.1 2958.4 2566.9V2594.8H2953.5V2566.9Z" fill="#312113"/>
<path d="M3006.8 2573.4C3015.9 2573.4 3023.3 2580.8 3023.3 2589.9C3023.3 2599.1 3015.9 2606.5 3006.8 2606.5C2997.6 2606.5 2990.2 2599.1 2990.2 2589.9C2990.2 2580.8 2997.6 2573.4 3006.8 2573.4Z" fill="#312113"/>
<path d="M2956.9 2573.4C2966 2573.4 2973.4 2580.8 2973.4 2589.9C2973.4 2599.1 2966 2606.5 2956.9 2606.5C2947.7 2606.5 2940.3 2599.1 2940.3 2589.9C2940.3 2580.8 2947.7 2573.4 2956.9 2573.4Z" fill="#312113"/>
<path d="M3255.9 2573.4C3265 2573.4 3272.4 2580.8 3272.4 2589.9C3272.4 2599.1 3265 2606.5 3255.9 2606.5C3246.8 2606.5 3239.4 2599.1 3239.4 2589.9C3239.4 2580.8 3246.8 2573.4 3255.9 2573.4Z" fill="#312113"/>
<path d="M3203.8 2573.4C3212.9 2573.4 3220.3 2580.8 3220.3 2589.9C3220.3 2599.1 3212.9 2606.5 3203.8 2606.5C3194.7 2606.5 3187.3 2599.1 3187.3 2589.9C3187.3 2580.8 3194.7 2573.4 3203.8 2573.4Z" fill="#312113"/>
<path d="M2490.8 1547.8C2486.7 1558.8 2461.7 1565.6 2456.3 1570C2451 1574.5 2441.5 1583.8 2437.9 1588C2434.2 1592.2 2430.1 1599.8 2427 1591.4C2423.8 1583 2432.6 1566.2 2437.8 1554.8C2443.1 1543.4 2458.9 1523.7 2458.9 1523.7C2458.9 1523.7 2494.9 1536.8 2490.8 1547.8V1547.8Z" fill="#E6A19B"/>
<path d="M2414.2 1544.8C2406.9 1525.5 2400.6 1493.6 2400.6 1493.6C2400.6 1493.6 2676.2 1503.3 2753.6 1501.5C2778.4 1500.8 2844.4 1606.5 2742.4 1630.7C2662 1649.9 2509.8 1543.3 2442.1 1551.1C2429.1 1552.6 2415.6 1548.5 2414.2 1544.8V1544.8Z" fill="#E6A19B"/>
<path d="M2483.4 1509.3C2483.4 1509.3 2462 1547.5 2431.4 1536.3C2398.6 1524.2 2315.1 1541.8 2321.6 1517.8C2326.4 1500.1 2339.1 1485.4 2399.8 1493.4C2445 1499.4 2483.4 1509.3 2483.4 1509.3V1509.3Z" fill="#E6A19B"/>
<path d="M2373.1 1498.5C2391.7 1500.4 2437.9 1537.2 2437.9 1537.2C2437.9 1537.2 2401.9 1538.8 2415 1564.3C2421 1576.2 2438.6 1580.7 2434.7 1587.6C2429.9 1596.1 2411 1585.5 2386.2 1588.4C2363.8 1591 2328.4 1576.8 2324.4 1568.5C2317.8 1554.3 2320.1 1530.8 2321.6 1517.8C2323.3 1503.6 2359.4 1497.1 2373.1 1498.5V1498.5Z" fill="#E6A19B"/>
<path d="M2385.9 1586.7L2383.4 1533.8C2383.4 1533.8 2379.1 1567.9 2385.9 1586.7Z" fill="#312113"/>
<path d="M2343.7 1582.1L2335.8 1529.6C2335.8 1529.6 2335 1564 2343.7 1582.1Z" fill="#312113"/>
<path d="M2366.1 1587.8L2355.9 1526.2C2355.9 1526.2 2357.2 1569.5 2366.1 1587.8Z" fill="#312113"/>
<path d="M2846.5 1188.1C2881.7 1192 2935.7 1234.5 2935.7 1310.2C2935.6 1385.9 2894.6 1559.6 2846.6 1677.6C2846.6 1677.6 2748.2 1620.8 2675.8 1501.5C2675.8 1501.5 2694.1 1347.7 2724.8 1283.1C2755.6 1218.6 2807.7 1183.8 2846.5 1188.1V1188.1Z" fill="#F2CD5D"/>
<path d="M2757 2441.7L2672.9 2477.2L2605.5 2377.1L2710.8 2332.5L2757 2441.7Z" fill="#E6A19B"/>
<path d="M2646.1 2446.1C2646.1 2446.1 2665 2429.8 2694.6 2444.3C2724.2 2458.8 2727.8 2436.9 2733 2431.6C2738.2 2426.3 2745.8 2421.1 2757.6 2421.2C2757.6 2421.2 2784.7 2524.9 2777 2605.6H2497.6C2497.6 2605.6 2488.9 2577.5 2513.1 2564.5C2537.2 2551.6 2643.1 2520.9 2657.1 2493.6C2671.2 2466.2 2646.1 2446.1 2646.1 2446.1Z" fill="#904823"/>
<path d="M2728.1 2585.8H2723C2723 2530.9 2772.4 2512.9 2773 2512.7L2774.7 2517.6C2772.8 2518.3 2728.1 2534.6 2728.1 2585.8Z" fill="#312113"/>
<path d="M2778.8 2580C2779.1 2590.1 2777.3 2598.9 2777 2605.6H2497.6C2497.6 2605.6 2493.6 2592.4 2498.7 2580H2778.8Z" fill="#312113"/>
<path d="M2631.8 2543.4L2598.5 2534.2L2599.8 2529.2L2632 2538.1C2638.2 2536.9 2692.1 2525.4 2697.5 2502.7C2703.2 2478.4 2682.2 2453.5 2682 2453.2L2686 2449.9C2686.9 2451 2708.8 2477 2702.5 2503.9C2696.1 2531.1 2635 2542.8 2632.4 2543.3L2631.8 2543.4Z" fill="#312113"/>
<path d="M2660.9 2526.7L2631.7 2516.7L2633.4 2511.8L2662.6 2521.8L2660.9 2526.7Z" fill="#312113"/>
<path d="M2684.9 2509.1L2655.7 2499.1L2657.4 2494.2L2686.6 2504.2L2684.9 2509.1Z" fill="#312113"/>
<path d="M2643.2 2060C2664.8 2133.4 2754.1 2378.7 2754.1 2378.7C2656.2 2498.3 2476.1 2499.7 2476.1 2499.7C2476.1 2499.7 2448.3 2382.7 2427.4 2300.7C2406.5 2218.8 2384.4 2109 2376.7 2045.9C2362.9 1932.9 2621.6 1986.5 2643.2 2060V2060Z" fill="#6987D0"/>
<path d="M2934.9 2002.5C2868.6 2000.3 2563.6 2177.8 2441.2 2126.2C2375.5 2098.6 2334.9 1964.5 2422 1895.8C2479 1850.8 2745.5 1762.6 2811.8 1751.3C2878 1740 3051.6 2006.4 2934.9 2002.5V2002.5Z" fill="#6987D0"/>
<path d="M2718.6 2408.7C2706.2 2374.2 2693.3 2340.5 2680.8 2308C2638.4 2197.7 2605 2110.5 2623.1 2073.7C2627.1 2065.6 2633.6 2060.1 2642.5 2057.5C2703.3 2039.3 2922.2 1971.7 2924.4 1971.1L2926 1976C2923.8 1976.7 2704.8 2044.3 2643.9 2062.4C2636.4 2064.7 2631.1 2069.1 2627.7 2076C2610.6 2110.8 2645.4 2201.3 2685.6 2306.1C2698.1 2338.7 2711 2372.4 2723.4 2407L2718.6 2408.7Z" fill="#312113"/>
<path d="M2482.6 2483.9L2477.5 2483.1C2477.7 2482.1 2493.6 2384 2490.4 2302.1L2495.6 2301.9C2498.8 2384.4 2482.8 2482.9 2482.6 2483.9Z" fill="#312113"/>
<path d="M3041.8 2441.7L2957.7 2477.2L2890.4 2377.1L2995.7 2332.5L3041.8 2441.7Z" fill="#E6A19B"/>
<path d="M2931 2446.1C2931 2446.1 2949.9 2429.8 2979.5 2444.3C3009.1 2458.8 3012.7 2436.9 3017.9 2431.6C3023.1 2426.3 3030.7 2421.1 3042.4 2421.2C3042.4 2421.2 3069.6 2524.9 3061.9 2605.6H2782.4C2782.4 2605.6 2773.8 2577.5 2797.9 2564.5C2822.1 2551.6 2927.9 2520.9 2942 2493.6C2956 2466.2 2931 2446.1 2931 2446.1Z" fill="#904823"/>
<path d="M3013 2585.8H3007.8C3007.8 2530.9 3057.3 2512.9 3057.8 2512.7L3059.5 2517.6C3057.6 2518.3 3013 2534.6 3013 2585.8Z" fill="#312113"/>
<path d="M3063.7 2580C3064 2590.1 3062.2 2598.9 3061.9 2605.6H2782.4C2782.4 2605.6 2778.4 2592.4 2783.6 2580H3063.7Z" fill="#312113"/>
<path d="M2916.7 2543.4L2883.3 2534.2L2884.7 2529.2L2916.9 2538.1C2923.1 2536.9 2977 2525.4 2982.3 2502.7C2988.1 2478.4 2967.1 2453.5 2966.9 2453.2L2970.8 2449.9C2971.8 2451 2993.7 2477 2987.4 2503.9C2980.9 2531.1 2919.8 2542.8 2917.3 2543.3L2916.7 2543.4Z" fill="#312113"/>
<path d="M2945.7 2526.7L2916.6 2516.7L2918.2 2511.8L2947.4 2521.8L2945.7 2526.7Z" fill="#312113"/>
<path d="M2969.8 2509.1L2940.6 2499.1L2942.3 2494.2L2971.5 2504.2L2969.8 2509.1Z" fill="#312113"/>
<path d="M2928.1 2060C2949.7 2133.4 3039 2378.7 3039 2378.7C2941 2498.3 2761 2499.7 2761 2499.7C2761 2499.7 2733.2 2382.7 2712.3 2300.7C2691.4 2218.8 2669.3 2109 2661.6 2045.9C2647.8 1932.9 2906.5 1986.5 2928.1 2060V2060Z" fill="#6987D0"/>
<path d="M3173.7 2009.3C3110.7 2024.8 2848.5 2177.8 2726 2126.2C2660.3 2098.6 2619.8 1964.5 2706.9 1895.8C2763.9 1850.8 2972.4 1751.3 3182.4 1751.3C3319.9 1751.3 3284.7 1981.8 3173.7 2009.3V2009.3Z" fill="#6987D0"/>
<path d="M3003.4 2408.7C2991.1 2374.2 2978.1 2340.5 2965.6 2307.9C2923.3 2197.6 2889.9 2110.5 2908 2073.7C2912 2065.6 2918.5 2060.1 2927.3 2057.5C2988.1 2039.4 3208.3 1946.2 3210.5 1945.3L3212.6 1950C3210.3 1951 2989.8 2044.2 2928.8 2062.4C2921.3 2064.7 2916 2069.1 2912.6 2076C2895.5 2110.8 2930.2 2201.3 2970.4 2306.1C2983 2338.7 2995.9 2372.4 3008.3 2407L3003.4 2408.7Z" fill="#312113"/>
<path d="M2895.3 2323.8C2894.9 2323.2 2852.8 2261.1 2806.3 2221.2L2809.6 2217.2C2856.7 2257.6 2899.2 2320.3 2899.6 2321L2895.3 2323.8Z" fill="#312113"/>
<path d="M2658.5 1968.9C2656.7 1878.4 2836.4 1816.9 2844.1 1814.3L2845.7 1819.2C2843.9 1819.8 2662 1882 2663.7 1968.8L2658.5 1968.9Z" fill="#312113"/>
<path d="M3076.2 1204.6C3196 1274.3 3288.1 1895 3288.1 1895C3159.7 1916.4 2983.8 1794.6 2873 1814.1C2767.8 1832.6 2710.1 1777.8 2710.1 1777.8C2737.8 1727.7 2702.6 1470.6 2715.4 1357.7C2738.6 1152.5 2956.3 1135 3076.2 1204.6V1204.6Z" fill="#F2CD5D"/>
<path d="M2919.5 1037.2L2954.8 1169.7C2873.6 1239.4 2844.5 1196.8 2839.1 1188.6L2818.5 1097C2881.9 1063.8 2919.5 1037.2 2919.5 1037.2V1037.2Z" fill="#E6A19B"/>
<path d="M2925.3 1072.5C2925.5 1072.2 2931.9 1111.3 2931.9 1111.3C2915.1 1169.2 2828 1168.9 2828 1168.9C2837.5 1126.5 2864.8 1124.2 2925.3 1072.5V1072.5Z" fill="#312113"/>
<path d="M2758.3 1059.2C2751.7 1018.7 2754.2 985.5 2792.4 970.4C2804 965.9 2836.3 956.3 2850.2 958.7C2883.1 964.4 2899.4 999 2918.8 1036.8C2925 1048.9 2931.2 1075 2928.5 1085.7C2920.9 1115.7 2872.2 1166.7 2841.8 1172.1C2788 1181.6 2765.8 1104.7 2758.3 1059.2Z" fill="#E6A19B"/>
<path d="M2809.9 1107.8C2806.9 1107.5 2791.5 1105.7 2788.1 1099.2C2787.3 1097.8 2786.8 1095.5 2788.3 1092.8C2796.9 1077 2791.4 1058.7 2790.2 1055.1C2788 1053.4 2778.7 1047.4 2766.8 1053.8L2764.4 1049.2C2781 1040.3 2793.9 1051.5 2794.1 1051.6L2794.5 1052L2794.8 1052.6C2795.1 1053.6 2803.5 1075.7 2792.8 1095.3C2792.3 1096.2 2792.5 1096.5 2792.6 1096.8C2794.2 1099.7 2804.2 1102 2810.4 1102.6L2809.9 1107.8Z" fill="#312113"/>
<path d="M2920.6 1011C2936.3 1008.4 2951.3 1019 2953.9 1034.7C2956.6 1050.4 2946 1065.4 2930.3 1068C2914.5 1070.7 2899.6 1060.1 2896.9 1044.4C2894.3 1028.6 2904.9 1013.7 2920.6 1011V1011Z" fill="#E6A19B"/>
<path d="M2931.2 1059.5C2930 1059.5 2928.7 1059.2 2927.4 1058.5C2923.1 1056.1 2924.3 1051.4 2925.2 1048.3C2926.2 1044.5 2926.3 1043.1 2924.9 1042.1C2924.1 1041.6 2923 1041.1 2921.9 1040.7C2919 1039.3 2915.6 1037.8 2914.7 1034.5C2914.1 1032.4 2914.7 1030.1 2916.4 1027.6C2922.4 1019 2932.2 1021.1 2932.7 1021.2L2931.6 1026.2C2931.3 1026.2 2924.6 1024.9 2920.7 1030.5C2919.9 1031.6 2919.5 1032.6 2919.7 1033.1C2919.9 1034.1 2922.3 1035.2 2924.1 1036C2925.4 1036.6 2926.7 1037.2 2927.7 1037.8C2932.5 1041 2931.1 1046.2 2930.2 1049.6C2929.3 1052.7 2929.3 1053.6 2929.9 1053.9C2933.1 1055.7 2937.8 1050.2 2937.8 1050.1L2941.8 1053.4C2939.7 1056 2935.6 1059.5 2931.2 1059.5V1059.5Z" fill="#312113"/>
<path d="M2811.4 1130.6C2807.7 1130.6 2805.4 1130.4 2805.1 1130.3L2805.6 1125.2C2805.8 1125.2 2829.9 1127.5 2847.3 1116.3L2850.1 1120.6C2836.7 1129.3 2820.3 1130.6 2811.4 1130.6Z" fill="#312113"/>
<path d="M2842.8 1055.2C2842.93 1055.6 2843.03 1056 2843.1 1056.4C2843.8 1060.6 2841 1064.5 2836.8 1065.2C2832.6 1065.9 2828.6 1063.1 2827.9 1058.9C2827.6 1057.2 2828 1055.4 2828.8 1054C2833.4 1055 2838.1 1055.4 2842.8 1055.2Z" fill="#312113"/>
<path d="M2787.9 1064.5C2788.03 1064.9 2788.13 1065.3 2788.2 1065.7C2788.9 1069.9 2786.1 1073.8 2781.9 1074.5C2777.7 1075.2 2773.8 1072.4 2773.1 1068.2C2772.8 1066.5 2773.1 1064.7 2773.9 1063.3C2778.5 1064.3 2783.2 1064.7 2787.9 1064.5Z" fill="#312113"/>
<path d="M2819.5 1045.7L2814.7 1043.8C2814.9 1043.2 2821.1 1028.3 2851.4 1037.9L2849.8 1042.9C2824.5 1034.8 2819.5 1045.6 2819.5 1045.7V1045.7Z" fill="#312113"/>
<path d="M2864.3 1273.5C2827.9 1273.5 2809.7 1240.4 2808.9 1239L2813.5 1236.6C2813.7 1236.9 2831 1268.3 2864.3 1268.3V1273.5Z" fill="#312113"/>
<path d="M2860.4 1783.8L2859.7 1778.7C2860.7 1778.5 2963.9 1761.5 2985.2 1669.1L2990.2 1670.2C2968.2 1766.1 2861.5 1783.6 2860.4 1783.8Z" fill="black"/>
<path d="M2841.2 983.3C2815.7 1027 2756.3 1045.5 2756.3 1045.5L2760.8 1071.9C2760.8 1071.9 2735 1043.8 2727.4 1014.1C2719.9 984.5 2736.1 974.2 2736.1 974.2C2736.1 974.2 2723.3 936.6 2783 908C2842.6 879.5 2873.2 915.4 2873.2 915.4C2902.5 907.8 2949.3 967.1 2930.4 1010.9C2930.4 1010.9 2901.1 1009.4 2906.8 1043.3C2900.1 1045.6 2902.9 1044.5 2896 1045.7L2882.7 1013.9C2882.7 1013.9 2855.1 1015.3 2841.2 983.3V983.3Z" fill="#312113"/>
<path d="M3076.8 1221.2C3106.1 1241.1 3141.3 1290.1 3105.9 1356.9C3070.4 1423.8 2975.3 1566.8 2877.7 1648.7C2877.7 1648.7 2854.9 1520.8 2766 1423.2C2766 1423.2 2872.7 1276.6 2930.1 1233.9C2987.5 1191.2 3044.5 1199.2 3076.8 1221.2Z" fill="#F2CD5D"/>
<path d="M2919.9 1514.9C2905.3 1514.9 2895.5 1512.4 2895.2 1512.3L2896.5 1507.3C2897.3 1507.5 2972.7 1526.5 3019.2 1454.1L3023.5 1456.8C2991.9 1506.2 2947.4 1514.9 2919.9 1514.9V1514.9Z" fill="black"/>
<path d="M2840 1525.1C2869.8 1589.6 2886 1645.6 2876.2 1650.2C2866.4 1654.7 2834.2 1606.1 2804.4 1541.6C2774.6 1477 2758.4 1421 2768.3 1416.5C2778.1 1411.9 2810.2 1460.6 2840 1525.1V1525.1Z" fill="black"/>
<path d="M2529 1518.9C2529 1518.9 2474.2 1493.6 2473.9 1459.7C2473.6 1423.2 2424.6 1368.3 2424.6 1368.3C2424.6 1368.3 2460.1 1353.3 2503.5 1399.5C2547 1445.7 2574.6 1453.4 2574.6 1453.4L2529 1518.9Z" fill="#E6A19B"/>
<path d="M2499.6 1413C2507.4 1430.3 2485.9 1487.7 2485.9 1487.7C2480.3 1483.5 2462.6 1457.5 2458.4 1455.9C2456.3 1455.1 2445 1459.7 2432.1 1468.2C2422 1475 2419.9 1478.1 2411.3 1469.5C2399.2 1457.6 2384.8 1442.7 2383.1 1438.7C2380.1 1431.7 2422.4 1389.9 2422.4 1389.9C2422.4 1389.9 2371.7 1425.6 2347.5 1428.1C2341.3 1428.7 2335.2 1419 2340.4 1415.5C2378.6 1390.3 2427.4 1367.1 2427.4 1367.1C2427.4 1367.1 2490.5 1393.1 2499.6 1413V1413Z" fill="#E6A19B"/>
<path d="M2406.8 1465.3L2450.1 1426.5C2450.1 1426.5 2421.3 1449.2 2406.8 1465.3Z" fill="#312113"/>
<path d="M2394.4 1452.6L2441.9 1403C2441.9 1403 2407.3 1435.2 2394.4 1452.6Z" fill="#312113"/>
<path d="M2765.8 1431.3C2771.2 1429.1 2776.5 1426.9 2781.6 1424.8C2796.3 1441.1 2818.8 1479.1 2840 1525.1C2843.53 1532.7 2846.83 1540.13 2849.9 1547.4C2838.3 1549.2 2824.5 1550.8 2809.4 1552.2C2727.4 1560.2 2573.8 1539.2 2525 1517L2562.2 1452.1C2562.2 1452.1 2676.9 1468.3 2765.8 1431.3V1431.3Z" fill="#E6A19B"/>
<path d="M2877.5 1652.4L2874.9 1647.9C2877.2 1646.6 3101.1 1515.4 3110.5 1375.1L3115.7 1375.4C3106 1518.5 2879.8 1651.1 2877.5 1652.4Z" fill="black"/>
<path d="M2314.3 1752.8H2687.5V1763C2687.5 1765.4 2685.6 1767.3 2683.2 1767.3H2316.4C2315.2 1767.3 2314.3 1766.3 2314.3 1765.2V1752.8Z" fill="black"/>
<path d="M2641 1747H2652.7V1752.8H2639.6V1748.5C2639.6 1747.7 2640.2 1747 2641 1747Z" fill="#312113"/>
<path d="M2625.8 1747H2637.5V1752.8H2624.4V1748.5C2624.4 1747.7 2625 1747 2625.8 1747Z" fill="#312113"/>
<path d="M2610.6 1747H2622.3V1752.8H2609.2V1748.5C2609.2 1747.7 2609.8 1747 2610.6 1747Z" fill="#312113"/>
<path d="M2547.3 1747H2559V1752.8H2545.9V1748.5C2545.9 1747.7 2546.5 1747 2547.3 1747Z" fill="#312113"/>
<path d="M2532.1 1747H2543.8V1752.8H2530.7V1748.5C2530.7 1747.7 2531.3 1747 2532.1 1747Z" fill="#312113"/>
<path d="M2353.7 1747H2365.4V1752.8H2352.3V1748.5C2352.3 1747.7 2353 1747 2353.7 1747Z" fill="#312113"/>
<path d="M2338.6 1747H2350.2V1752.8H2337.1V1748.5C2337.1 1747.7 2337.8 1747 2338.6 1747Z" fill="#312113"/>
<path d="M2563 1747H2606.5V1752.8H2561.5V1748.5C2561.5 1747.7 2562.2 1747 2563 1747Z" fill="#312113"/>
<path d="M2289.2 1747H2332.8V1752.8H2287.8V1748.5C2287.8 1747.7 2288.4 1747 2289.2 1747Z" fill="#312113"/>
<path d="M2370.4 1747H2525.3V1752.8H2368.9V1748.5C2368.9 1747.7 2369.6 1747 2370.4 1747Z" fill="#312113"/>
<path d="M2292.8 1748.5V1752.8H2256.4V1750.3C2256.4 1748.5 2257.9 1747 2259.6 1747H2291.4C2292.2 1747 2292.8 1747.7 2292.8 1748.5Z" fill="url(#paint0_linear_1_2)"/>
<path d="M2248.9 1748.5V1752.8H2212.5V1750.3C2212.5 1748.5 2214 1747 2215.8 1747H2247.5C2248.3 1747 2248.9 1747.7 2248.9 1748.5Z" fill="url(#paint1_linear_1_2)"/>
<path d="M2205.1 1748.5V1752.8H2168.7V1750.3C2168.7 1748.5 2170.1 1747 2171.9 1747H2203.7C2204.5 1747 2205.1 1747.7 2205.1 1748.5Z" fill="url(#paint2_linear_1_2)"/>
<path d="M2161.2 1748.5V1752.8H2124.8V1750.3C2124.8 1748.5 2126.3 1747 2128.1 1747H2159.8C2160.6 1747 2161.2 1747.7 2161.2 1748.5Z" fill="url(#paint3_linear_1_2)"/>
<path d="M2109.6 1748.5V1752.8H2088.3V1750.3C2088.3 1748.5 2089.8 1747 2091.6 1747H2108.2C2109 1747 2109.6 1747.7 2109.6 1748.5Z" fill="url(#paint4_linear_1_2)"/>
<path d="M2083.7 1748.5V1752.8H2062.5V1750.3C2062.5 1748.5 2063.9 1747 2065.7 1747H2082.3C2083.1 1747 2083.7 1747.7 2083.7 1748.5Z" fill="url(#paint5_linear_1_2)"/>
<path d="M2059.4 1748.5V1752.8H2038.1V1750.3C2038.1 1748.5 2039.6 1747 2041.4 1747H2058C2058.8 1747 2059.4 1747.7 2059.4 1748.5Z" fill="url(#paint6_linear_1_2)"/>
<path d="M2413.7 1745.1C2417.5 1760.7 2403.2 1765.5 2403.2 1765.5L2318.6 1458.3C2330.5 1458.2 2341.6 1467.2 2344.6 1478.8C2360.9 1541.4 2410.5 1732 2413.7 1745.1Z" fill="black"/>
<path d="M2327.3 1467.1L2399.9 1752.7H1988.8L1916.9 1468.6C1915.5 1463.3 1919.6 1458.1 1925 1458.1H2315.8C2321.2 1458.1 2325.9 1461.8 2327.3 1467.1Z" fill="#858481"/>
<path d="M1914.6 1469.3C1913.8 1466 1914.5 1462.5 1916.6 1459.8C1918.7 1457.1 1921.9 1455.5 1925.3 1455.5H2247.2V1460.9H1925.3C1923.6 1460.9 1921.9 1461.7 1920.9 1463.1C1919.8 1464.5 1919.4 1466.3 1919.8 1468L1971.4 1671.6L1966.1 1672.9L1914.6 1469.3Z" fill="#312113"/>
<path d="M1988.1 1752.8H2397.6V1763C2397.6 1765.4 2395.7 1767.3 2393.4 1767.3H1990.2C1989 1767.3 1988.1 1766.3 1988.1 1765.2V1752.8Z" fill="white"/>
<path d="M1990.7 1750.1H2325.8V1755.5H1990.7V1750.1Z" fill="#312113"/>
<path d="M2341.4 1533.5L2346.6 1532.2L2402.3 1750.1H2687.5V1755.5H2398.1L2341.4 1533.5Z" fill="#312113"/>
<path d="M564.3 1657C679.3 1553 828.5 1825.3 813.4 1932.3L756.3 1932C701 1904.8 471.2 1741.1 564.3 1657Z" fill="#BCB469"/>
<path d="M783.4 1933.2C699.8 1777.8 563.8 1660.3 562.5 1659.1L566.1 1654.8C567.5 1656 704.2 1774.2 788.4 1930.6L783.4 1933.2Z" fill="#8C843D"/>
<path d="M717.1 1826.7C713.1 1826.3 617.5 1815.6 588.5 1804.5L590.5 1799.3C618.9 1810.1 716.8 1821 717.8 1821.1L717.1 1826.7Z" fill="#8C843D"/>
<path d="M648.5 1734.9L643.3 1732.8C656.8 1699.8 659.8 1646.5 659.8 1646L665.4 1646.3C665.3 1648.5 662.4 1701 648.5 1734.9Z" fill="#8C843D"/>
<path d="M764 1756.8C798.6 1818.5 819.5 1889 813.4 1932.3C734 1862.2 751.3 1768.2 764 1756.8Z" fill="black"/>
<path d="M857.9 1585.9C959.6 1544.5 927.3 1797.4 837.4 1932.5L795.8 1932.2C775.3 1898.2 775.5 1619.5 857.9 1585.9Z" fill="#BCB469"/>
<path d="M816.1 1932.9L810.6 1931.7C827.1 1856.7 871.9 1614.7 872.4 1612.2L877.9 1613.3C877.5 1615.7 832.6 1857.8 816.1 1932.9Z" fill="#8C843D"/>
<path d="M834.8 1850.6L830.9 1846.6L875.5 1802.4L879.5 1806.4L834.8 1850.6Z" fill="#8C843D"/>
<path d="M846.8 1751.3L796.5 1715.6L799.8 1711L850 1746.8L846.8 1751.3Z" fill="#8C843D"/>
<path d="M951.4 1933.7L951.1 1968.6C950.9 2008.2 940.4 2047.1 920.8 2081.6L913 2095.3L860.1 2601.7L713.5 2600.7L660.1 2093.6L652.5 2079.8C633.4 2045.1 623.5 2006 623.7 1966.4L624 1931.5L951.4 1933.7Z" fill="#904823"/>
<path d="M869.2 2023.8L625.3 2022.1L625.4 2016.5L869.3 2018.1L869.2 2023.8Z" fill="#312113"/>
<path d="M914.4 2097.7L827.2 2097.1V2091.5L914.5 2092.1L914.4 2097.7Z" fill="#312113"/>
<path d="M718.9 2603.5H711L657.4 2094.4L650.1 2081.2C630.7 2046.1 620.6 2006.4 620.9 1966.4L621.2 1928.6L951.4 1930.8L951.3 1936.5L626.7 1934.3L626.5 1966.4C626.3 2005.5 636.1 2044.2 655 2078.4L662.9 2093.3L716.1 2597.9H719L718.9 2603.5Z" fill="#312113"/>
<path d="M872.9 1933.3L867.6 1931.3C888.8 1877.3 969.7 1851.4 973.1 1850.3L974.8 1855.7C974 1855.9 893.1 1881.9 872.9 1933.3V1933.3Z" fill="#312113"/>
<path d="M691.7 1931.6C691.3 1930.9 653.1 1855 599.2 1843L600.4 1837.5C657 1850.1 695.1 1925.9 696.7 1929.1L691.7 1931.6Z" fill="#312113"/>
<path d="M693.1 1934.7C691.7 1933.8 546.9 1844.8 441.9 1881.4L440 1876C547.6 1838.6 694.6 1929 696.1 1930L693.1 1934.7Z" fill="#312113"/>
<path d="M777.1 1804.4L771.5 1803.9C771.6 1802.6 781.9 1665.2 716.6 1603.2L720.5 1599.1C787.7 1663 777.6 1798.7 777.1 1804.4Z" fill="#312113"/>
<path fill-rule="evenodd" clip-rule="evenodd" d="M3207.1 941.6L3210.8 834.7L3172.4 836.6C3172.33 836.6 3172.23 836.6 3172.1 836.6C3154.7 837.2 3137.9 830.9 3124.7 818.7C3110.6 805.7 3102.1 787 3101.4 767.4L3089.6 446.1C3088.2 406.4 3117.7 372.8 3155.4 371.2L3639.6 351.5C3657 350.7 3674.1 357.1 3687.3 369.3C3701.4 382.4 3709.9 401.1 3710.6 420.7L3722.4 741.9C3723.8 781.6 3694.3 815.3 3656.6 816.9L3375.4 827.7L3207.1 941.6ZM3216.7 828.7L3213.2 930.6L3373.5 822.1L3656.4 811.2C3690.9 809.7 3718 778.7 3716.6 742.1L3704.9 420.9C3704.2 402.8 3696.4 385.6 3683.4 373.6C3671.4 362.4 3656 356.6 3640.1 357.2C3640.03 357.2 3639.93 357.2 3639.8 357.2L3155.6 376.9C3121 378.4 3094 409.4 3095.3 446L3107.1 767.2C3107.7 785.3 3115.6 802.5 3128.6 814.5C3140.7 825.8 3156.2 831.5 3172.2 830.9L3216.7 828.7Z" fill="#312113"/>
<path d="M3111 385.1L3595.2 365.4C3631.2 363.8 3661.9 393.8 3663.3 431.8L3675 753C3676.4 791.1 3648 823.5 3612 825L3330 835.9L3165.6 947.1L3169.2 842.7L3127.8 844.8C3091.7 846.3 3061.1 816.4 3059.7 778.3L3048 457.1C3046.6 419 3074.9 386.6 3111 385.1V385.1Z" fill="#FF8376"/>
<path d="M3122.1 846.4C3106.5 846.4 3091.6 840.6 3080 830C3067.6 818.7 3060.4 803.3 3059.7 786.6L3051.4 598.7L3054.9 598.6L3063.2 786.4C3063.9 802.2 3070.7 816.7 3082.4 827.4C3094 838 3109.1 843.5 3124.9 842.8L3145 841.8L3145.1 845.4L3125 846.3C3124.07 846.367 3123.1 846.4 3122.1 846.4V846.4Z" fill="#312113"/>
<path d="M3046.5 464C3044.8 417.8 3069.2 400.7 3070.3 400L3072.3 403C3072 403.1 3048.4 419.7 3050 463.9L3046.5 464Z" fill="#312113"/>
<path d="M3209.5 712.8L3208.4 696L3292.4 692.6L3293.5 709.4L3209.5 712.8Z" fill="white"/>
<path d="M3205.7 662.3L3204.6 645.6L3382.3 638.4L3383.3 655.1L3205.7 662.3Z" fill="white"/>
<path d="M3181.8 612.7L3180.8 596L3323.3 590.2L3324.4 607L3181.8 612.7Z" fill="white"/>
<path d="M3302.1 709L3301.1 692.2L3326.6 691.2L3327.6 708L3302.1 709Z" fill="white"/>
<path d="M3406.7 704.8L3405.7 688L3489.7 684.6L3490.7 701.4L3406.7 704.8Z" fill="white"/>
<path d="M3402.9 654.4L3401.9 637.6L3579.5 630.4L3580.6 647.2L3402.9 654.4Z" fill="white"/>
<path d="M3379.1 604.7L3378.1 588L3520.6 582.2L3521.6 599L3379.1 604.7Z" fill="white"/>
<path d="M3499.4 701L3498.4 684.3L3523.8 683.2L3524.9 700L3499.4 701Z" fill="white"/>
<path d="M3167.2 564.6L3166.2 547.8L3250.2 544.4L3251.2 561.2L3167.2 564.6Z" fill="white"/>
<path d="M3163.4 514.2L3162.4 497.4L3340 490.2L3341 507L3163.4 514.2Z" fill="white"/>
<path d="M3259.9 560.8L3258.8 544.1L3284.3 543L3285.4 559.8L3259.9 560.8Z" fill="white"/>
<path d="M3364.5 556.6L3363.5 539.8L3447.5 536.4L3448.5 553.2L3364.5 556.6Z" fill="white"/>
<path d="M3360.7 506.2L3359.7 489.4L3537.3 482.2L3538.3 499L3360.7 506.2Z" fill="white"/>
<path d="M3457.1 552.8L3456.1 536.1L3481.6 535.1L3482.6 551.8L3457.1 552.8Z" fill="white"/>
<path d="M3085.4 542.4L3084.8 526.1C3088.07 525.767 3090.53 525.167 3092.2 524.3C3093.87 523.433 3095.27 522 3096.4 520C3097.53 518 3098.27 515.533 3098.6 512.6C3098.87 510.467 3098.9 506.667 3098.7 501.2C3098.37 492.4 3098.53 486.267 3099.2 482.8C3099.87 479.267 3101.23 476.4 3103.3 474.2C3105.3 472 3108.33 470.2 3112.4 468.8C3115.13 467.867 3119.47 467.3 3125.4 467.1L3129 466.9L3129.7 483.2C3124.63 483.4 3121.4 483.8 3120 484.4C3118.6 485.067 3117.6 486 3117 487.2C3116.33 488.333 3116.07 490.333 3116.2 493.2C3116.33 496.067 3116.33 501.5 3116.2 509.5C3116.2 513.967 3115.77 517.633 3114.9 520.5C3114.03 523.3 3112.9 525.633 3111.5 527.5C3110.1 529.433 3107.93 531.433 3105 533.5C3107.73 534.9 3110 536.6 3111.8 538.6C3113.6 540.6 3115 543.067 3116 546C3117.07 548.933 3117.83 552.867 3118.3 557.8C3118.9 565.333 3119.23 570.133 3119.3 572.2C3119.43 575.2 3119.9 577.267 3120.7 578.4C3121.43 579.533 3122.57 580.4 3124.1 581C3125.57 581.533 3128.77 581.7 3133.7 581.5L3134.3 597.9L3130.7 598C3124.57 598.267 3119.87 597.967 3116.6 597.1C3113.27 596.233 3110.43 594.733 3108.1 592.6C3105.77 590.4 3104.13 587.633 3103.2 584.3C3102.33 581.033 3101.73 575.8 3101.4 568.6C3101.07 560.267 3100.5 554.867 3099.7 552.4C3098.57 548.8 3096.93 546.267 3094.8 544.8C3092.73 543.267 3089.6 542.467 3085.4 542.4V542.4Z" fill="white"/>
<path d="M3642.6 680.2C3640.67 681.867 3639.27 684.533 3638.4 688.2C3637.73 690.733 3637.6 696.167 3638 704.5C3638.27 711.7 3638.07 716.967 3637.4 720.3C3636.8 723.7 3635.4 726.567 3633.2 728.9C3631.07 731.3 3628.4 733.033 3625.2 734.1C3621.93 735.233 3617.23 735.933 3611.1 736.2L3607.5 736.3L3606.9 720C3611.77 719.8 3614.93 719.333 3616.4 718.6C3617.87 717.933 3618.93 717 3619.6 715.8C3620.27 714.6 3620.53 712.5 3620.4 709.5C3620.33 707.433 3620.3 702.633 3620.3 695.1C3620.37 690.1 3620.8 686.1 3621.6 683.1C3622.4 680.1 3623.6 677.533 3625.2 675.4C3626.8 673.267 3628.93 671.4 3631.6 669.8C3628.47 667.933 3626.13 666.133 3624.6 664.4C3623 662.6 3621.67 660.333 3620.6 657.6C3619.53 654.867 3618.8 651.233 3618.4 646.7C3617.67 638.767 3617.23 633.367 3617.1 630.5C3617.03 627.7 3616.63 625.733 3615.9 624.6C3615.17 623.467 3614.07 622.633 3612.6 622.1C3611.13 621.567 3607.9 621.433 3602.9 621.7L3602.2 605.4L3605.8 605.2C3611.73 605 3616.1 605.233 3618.9 605.9C3623.1 606.967 3626.3 608.533 3628.5 610.6C3630.7 612.6 3632.3 615.333 3633.3 618.8C3634.23 622.2 3634.87 628.3 3635.2 637.1C3635.47 642.5 3635.8 646.3 3636.2 648.5C3636.8 651.367 3637.73 653.733 3639 655.6C3640.33 657.533 3641.87 658.867 3643.6 659.6C3645.27 660.333 3647.77 660.733 3651.1 660.8L3651.8 677.1C3647.6 677.5 3644.53 678.533 3642.6 680.2V680.2Z" fill="white"/>
<path d="M2337.2 1798.1V2497.1L1814.6 2496V2605.7H1757.6V1798.1H2337.2Z" fill="#312113"/>
<g style="mix-blend-mode:multiply">
<path d="M2337.2 1798.1V1921.4H1873.6L1764.1 1811.9C1762 1809.8 1759.8 1808.2 1757.6 1806.9V1798.1H2337.2Z" fill="#312113"/>
</g>
<path d="M1659.6 1824.6V1767.3H3260.4L3258.8 1824.6H1659.6Z" fill="#312113"/>
<path d="M3255.1 1827.1H1657V1764.8H2311.8V1769.9H1662.1V1822H3255.1V1827.1Z" fill="black"/>
<path d="M3034.3 1827.1H3095.2V2605.5H3034.3V1827.1Z" fill="#EDE3DD"/>
<path d="M3095.2 1827.1V1896.8H3062.9V2605.5H3034.3V1827.1H3095.2Z" fill="#312113"/>
<path d="M3065.5 2605.5H3060.3V1896.8H3065.5V2605.5Z" fill="black"/>
<path d="M1755 1888.5H1760.1V2372.2H1755V1888.5Z" fill="black"/>
<path d="M2047.4 2494.5H2334.6V2166.5H2339.7V2499.6H2047.4V2494.5Z" fill="black"/>
<path d="M1812.1 2510.1H1817.2V2589.6H1812.1V2510.1Z" fill="black"/>
<path d="M2654.3 398.4V438.6H1990.9V398.4C1990.9 379.4 2006.4 364 2025.4 364H2619.8C2638.8 364 2654.3 379.4 2654.3 398.4Z" fill="#6987D0"/>
<path d="M2038 407.4C2038 410.3 2035.7 412.6 2032.8 412.6C2029.9 412.6 2027.6 410.3 2027.6 407.4C2027.6 404.5 2029.9 402.2 2032.8 402.2C2035.7 402.2 2038 404.5 2038 407.4Z" fill="white"/>
<path d="M2060.1 407.4C2060.1 410.3 2057.7 412.6 2054.9 412.6C2052 412.6 2049.6 410.3 2049.6 407.4C2049.6 404.5 2052 402.2 2054.9 402.2C2057.7 402.2 2060.1 404.5 2060.1 407.4Z" fill="white"/>
<path d="M2082.1 407.4C2082.1 410.3 2079.8 412.6 2076.9 412.6C2074 412.6 2071.7 410.3 2071.7 407.4C2071.7 404.5 2074 402.2 2076.9 402.2C2079.8 402.2 2082.1 404.5 2082.1 407.4Z" fill="white"/>
<path d="M2038.5 1156.5L2038.3 1144.8H2096.9L2097.1 1156.5H2038.5Z" fill="#312113"/>
<path d="M2037.3 1121.3L2037 1109.6H2161L2161.2 1121.3H2037.3Z" fill="#312113"/>
<path d="M2035.7 1086.1L2035.4 1074.3H2134.9L2135.1 1086.1H2035.7Z" fill="#312113"/>
<path d="M2103.2 1156.5L2102.9 1144.8H2120.7L2120.9 1156.5H2103.2Z" fill="#312113"/>
<path d="M2176.2 1156.5L2175.9 1144.8H2234.5L2234.8 1156.5H2176.2Z" fill="#312113"/>
<path d="M2174.9 1121.3L2174.7 1109.6H2298.6L2298.9 1121.3H2174.9Z" fill="#312113"/>
<path d="M2173.3 1086.1L2173.1 1074.3H2272.5L2272.8 1086.1H2173.3Z" fill="#312113"/>
<path d="M2240.8 1156.5L2240.6 1144.8H2258.4L2258.6 1156.5H2240.8Z" fill="#312113"/>
<path d="M2037.7 1052.1L2037.4 1040.4H2096L2096.3 1052.1H2037.7Z" fill="#312113"/>
<path d="M2036.5 1016.9L2036.2 1005.2H2160.2L2160.4 1016.9H2036.5Z" fill="#312113"/>
<path d="M2034.8 981.6L2034.6 969.9H2134L2134.3 981.6H2034.8Z" fill="#312113"/>
<path d="M2102.3 1052.1L2102.1 1040.4H2119.9L2120.1 1052.1H2102.3Z" fill="#312113"/>
<path d="M2175.3 1052.1L2175.1 1040.4H2233.7L2234 1052.1H2175.3Z" fill="#FF8376"/>
<path d="M2174.1 1016.9L2173.9 1005.2H2297.8L2298.1 1016.9H2174.1Z" fill="#312113"/>
<path d="M2172.5 981.6L2172.2 969.9H2271.7L2271.9 981.6H2172.5Z" fill="white"/>
<path d="M2240 1052.1L2239.7 1040.4H2257.5L2257.8 1052.1H2240Z" fill="#312113"/>
<path d="M2036.8 947.7L2036.6 936H2095.2L2095.5 947.7H2036.8Z" fill="#312113"/>
<path d="M2035.6 912.5L2035.4 900.7H2159.3L2159.6 912.5H2035.6Z" fill="#312113"/>
<path d="M2034 877.2L2033.7 865.5H2133.2L2133.4 877.2H2034Z" fill="#312113"/>
<path d="M2101.5 947.7L2101.2 936H2119L2119.3 947.7H2101.5Z" fill="#312113"/>
<path d="M2174.5 947.7L2174.3 936H2232.9L2233.1 947.7H2174.5Z" fill="#312113"/>
<path d="M2173.3 912.5L2173 900.7H2297L2297.2 912.5H2173.3Z" fill="#312113"/>
<path d="M2171.6 877.2L2171.4 865.5H2270.8L2271.1 877.2H2171.6Z" fill="#312113"/>
<path d="M2239.1 947.7L2238.9 936H2256.7L2256.9 947.7H2239.1Z" fill="#312113"/>
<path d="M2036 843.3L2035.8 831.6H2094.4L2094.6 843.3H2036Z" fill="#312113"/>
<path d="M2034.8 808L2034.5 796.3H2158.5L2158.7 808H2034.8Z" fill="#312113"/>
<path d="M2100.7 843.3L2100.4 831.6H2118.2L2118.4 843.3H2100.7Z" fill="#312113"/>
<path d="M2173.7 843.3L2173.4 831.6H2232L2232.3 843.3H2173.7Z" fill="#312113"/>
<path d="M2172.4 808L2172.2 796.3H2296.1L2296.4 808H2172.4Z" fill="#312113"/>
<path d="M2170.8 772.8L2170.6 761.1H2270L2270.2 772.8H2170.8Z" fill="#312113"/>
<path d="M2238.3 843.3L2238.1 831.6H2255.9L2256.1 843.3H2238.3Z" fill="#312113"/>
<path d="M2035.2 738.9L2034.9 727.1H2093.5L2093.8 738.9H2035.2Z" fill="#312113"/>
<path d="M2034 703.6L2033.7 691.9H2157.6L2157.9 703.6H2034Z" fill="#312113"/>
<path d="M2032.3 668.4L2032.1 656.7H2131.5L2131.8 668.4H2032.3Z" fill="#312113"/>
<path d="M2099.8 738.9L2099.6 727.1H2117.4L2117.6 738.9H2099.8Z" fill="#312113"/>
<path d="M2172.8 738.9L2172.6 727.1H2231.2L2231.4 738.9H2172.8Z" fill="#312113"/>
<path d="M2171.6 703.6L2171.4 691.9H2295.3L2295.6 703.6H2171.6Z" fill="#312113"/>
<path d="M2170 668.4L2169.7 656.7H2269.2L2269.4 668.4H2170Z" fill="#312113"/>
<path d="M2237.5 738.9L2237.2 727.1H2255L2255.3 738.9H2237.5Z" fill="#312113"/>
<path d="M2034.3 634.4L2034.1 622.7H2092.7L2093 634.4H2034.3Z" fill="#312113"/>
<path d="M2033.1 599.2L2032.9 587.5H2156.8L2157.1 599.2H2033.1Z" fill="#312113"/>
<path d="M2031.5 564L2031.2 552.3H2130.7L2130.9 564H2031.5Z" fill="#312113"/>
<path d="M2099 634.4L2098.7 622.7H2116.5L2116.8 634.4H2099Z" fill="#312113"/>
<path d="M2172 634.4L2171.8 622.7H2230.4L2230.6 634.4H2172Z" fill="#312113"/>
<path d="M2170.8 599.2L2170.5 587.5H2294.5L2294.7 599.2H2170.8Z" fill="#312113"/>
<path d="M2169.1 564L2168.9 552.3H2268.3L2268.6 564H2169.1Z" fill="#312113"/>
<path d="M2236.6 634.4L2236.4 622.7H2254.2L2254.4 634.4H2236.6Z" fill="#312113"/>
<path d="M2033.5 530L2033.3 518.3H2091.9L2092.1 530H2033.5Z" fill="#312113"/>
<path d="M2032.3 494.8L2032 483.1H2156L2156.2 494.8H2032.3Z" fill="#312113"/>
<path d="M2098.1 530L2097.9 518.3H2115.7L2115.9 530H2098.1Z" fill="#312113"/>
<path d="M2171.2 530L2170.9 518.3H2229.5L2229.8 530H2171.2Z" fill="#312113"/>
<path d="M2169.9 494.8L2169.7 483.1H2293.6L2293.9 494.8H2169.9Z" fill="#312113"/>
<path d="M2235.8 530L2235.6 518.3H2253.4L2253.6 530H2235.8Z" fill="#312113"/>
<path d="M2349.4 1156.5L2349.2 1144.8H2407.8L2408.1 1156.5H2349.4Z" fill="#312113"/>
<path d="M2348.2 1121.3L2348 1109.6H2471.9L2472.2 1121.3H2348.2Z" fill="#312113"/>
<path d="M2346.6 1086.1L2346.3 1074.3H2445.8L2446 1086.1H2346.6Z" fill="#312113"/>
<path d="M2414.1 1156.5L2413.8 1144.8H2431.6L2431.9 1156.5H2414.1Z" fill="#312113"/>
<path d="M2487.1 1156.5L2486.9 1144.8H2545.5L2545.7 1156.5H2487.1Z" fill="#312113"/>
<path d="M2485.9 1121.3L2485.6 1109.6H2609.6L2609.8 1121.3H2485.9Z" fill="#312113"/>
<path d="M2484.2 1086.1L2484 1074.3H2583.4L2583.7 1086.1H2484.2Z" fill="#312113"/>
<path d="M2551.7 1156.5L2551.5 1144.8H2569.3L2569.5 1156.5H2551.7Z" fill="#312113"/>
<path d="M2348.6 1052.1L2348.4 1040.4H2407L2407.2 1052.1H2348.6Z" fill="#312113"/>
<path d="M2347.4 1016.9L2347.1 1005.2H2471.1L2471.3 1016.9H2347.4Z" fill="#312113"/>
<path d="M2345.7 981.6L2345.5 969.9H2444.9L2445.2 981.6H2345.7Z" fill="#312113"/>
<path d="M2413.3 1052.1L2413 1040.4H2430.8L2431 1052.1H2413.3Z" fill="#312113"/>
<path d="M2486.3 1052.1L2486 1040.4H2544.6L2544.9 1052.1H2486.3Z" fill="#312113"/>
<path d="M2485 1016.9L2484.8 1005.2H2608.7L2609 1016.9H2485Z" fill="#FF8376"/>
<path d="M2483.4 981.6L2483.2 969.9H2582.6L2582.8 981.6H2483.4Z" fill="white"/>
<path d="M2550.9 1052.1L2550.7 1040.4H2568.5L2568.7 1052.1H2550.9Z" fill="#312113"/>
<path d="M2347.8 947.7L2347.5 936H2406.1L2406.4 947.7H2347.8Z" fill="#312113"/>
<path d="M2346.6 912.5L2346.3 900.7H2470.3L2470.5 912.5H2346.6Z" fill="#312113"/>
<path d="M2344.9 877.2L2344.7 865.5H2444.1L2444.4 877.2H2344.9Z" fill="#312113"/>
<path d="M2412.4 947.7L2412.2 936H2430L2430.2 947.7H2412.4Z" fill="#312113"/>
<path d="M2485.4 947.7L2485.2 936H2543.8L2544 947.7H2485.4Z" fill="#312113"/>
<path d="M2484.2 912.5L2484 900.7H2607.9L2608.2 912.5H2484.2Z" fill="#312113"/>
<path d="M2482.6 877.2L2482.3 865.5H2581.8L2582 877.2H2482.6Z" fill="#312113"/>
<path d="M2550.1 947.7L2549.8 936H2567.6L2567.9 947.7H2550.1Z" fill="#312113"/>
<path d="M2346.6 1295.5L2346.3 1283.8H2445.8L2446 1295.5H2346.6Z" fill="#312113"/>
<path d="M2484.2 1295.5L2484 1283.8H2583.4L2583.7 1295.5H2484.2Z" fill="#312113"/>
<path d="M2348.6 1261.5L2348.4 1249.8H2407L2407.2 1261.5H2348.6Z" fill="#312113"/>
<path d="M2347.4 1226.3L2347.1 1214.6H2471.1L2471.3 1226.3H2347.4Z" fill="#312113"/>
<path d="M2345.7 1191.1L2345.5 1179.4H2444.9L2445.2 1191.1H2345.7Z" fill="#312113"/>
<path d="M2413.3 1261.5L2413 1249.8H2430.8L2431 1261.5H2413.3Z" fill="#312113"/>
<path d="M2486.3 1261.5L2486 1249.8H2544.6L2544.9 1261.5H2486.3Z" fill="#312113"/>
<path d="M2485 1226.3L2484.8 1214.6H2608.7L2609 1226.3H2485Z" fill="#FF8376"/>
<path d="M2483.4 1191.1L2483.2 1179.4H2582.6L2582.8 1191.1H2483.4Z" fill="white"/>
<path d="M2550.9 1261.5L2550.7 1249.8H2568.5L2568.7 1261.5H2550.9Z" fill="#312113"/>
<path d="M2346.9 843.3L2346.7 831.6H2405.3L2405.6 843.3H2346.9Z" fill="#312113"/>
<path d="M2345.7 808L2345.5 796.3H2469.4L2469.7 808H2345.7Z" fill="#312113"/>
<path d="M2411.6 843.3L2411.3 831.6H2429.1L2429.4 843.3H2411.6Z" fill="#312113"/>
<path d="M2484.6 843.3L2484.4 831.6H2543L2543.2 843.3H2484.6Z" fill="#312113"/>
<path d="M2483.4 808L2483.1 796.3H2607.1L2607.3 808H2483.4Z" fill="#312113"/>
<path d="M2481.7 772.8L2481.5 761.1H2580.9L2581.2 772.8H2481.7Z" fill="#312113"/>
<path d="M2549.2 843.3L2549 831.6H2566.8L2567 843.3H2549.2Z" fill="#312113"/>
<path d="M2346.1 738.9L2345.9 727.1H2404.5L2404.7 738.9H2346.1Z" fill="#312113"/>
<path d="M2344.9 703.6L2344.6 691.9H2468.6L2468.8 703.6H2344.9Z" fill="#312113"/>
<path d="M2343.2 668.4L2343 656.7H2442.4L2442.7 668.4H2343.2Z" fill="#312113"/>
<path d="M2410.8 738.9L2410.5 727.1H2428.3L2428.5 738.9H2410.8Z" fill="#312113"/>
<path d="M2483.8 738.9L2483.5 727.1H2542.1L2542.4 738.9H2483.8Z" fill="#312113"/>
<path d="M2482.5 703.6L2482.3 691.9H2606.2L2606.5 703.6H2482.5Z" fill="#312113"/>
<path d="M2480.9 668.4L2480.7 656.7H2580.1L2580.3 668.4H2480.9Z" fill="white"/>
<path d="M2548.4 738.9L2548.2 727.1H2566L2566.2 738.9H2548.4Z" fill="#312113"/>
<path d="M2345.3 634.4L2345 622.7H2403.6L2403.9 634.4H2345.3Z" fill="#312113"/>
<path d="M2344 599.2L2343.8 587.5H2467.7L2468 599.2H2344Z" fill="#312113"/>
<path d="M2342.4 564L2342.2 552.3H2441.6L2441.9 564H2342.4Z" fill="#312113"/>
<path d="M2409.9 634.4L2409.7 622.7H2427.5L2427.7 634.4H2409.9Z" fill="#312113"/>
<path d="M2482.9 634.4L2482.7 622.7H2541.3L2541.5 634.4H2482.9Z" fill="#312113"/>
<path d="M2481.7 599.2L2481.5 587.5H2605.4L2605.6 599.2H2481.7Z" fill="#312113"/>
<path d="M2480.1 564L2479.8 552.3H2579.3L2579.5 564H2480.1Z" fill="#312113"/>
<path d="M2547.6 634.4L2547.3 622.7H2565.1L2565.4 634.4H2547.6Z" fill="#312113"/>
<path d="M2344.4 530L2344.2 518.3H2402.8L2403.1 530H2344.4Z" fill="#312113"/>
<path d="M2343.2 494.8L2343 483.1H2466.9L2467.2 494.8H2343.2Z" fill="#312113"/>
<path d="M2409.1 530L2408.8 518.3H2426.6L2426.9 530H2409.1Z" fill="#312113"/>
<path d="M2482.1 530L2481.8 518.3H2540.5L2540.7 530H2482.1Z" fill="#312113"/>
<path d="M2480.9 494.8L2480.6 483.1H2604.6L2604.8 494.8H2480.9Z" fill="#FF8376"/>
<path d="M2546.7 530L2546.5 518.3H2564.3L2564.5 530H2546.7Z" fill="#312113"/>
<path d="M2657.1 1339.8H2651.4V399C2651.4 381.3 2637 366.8 2619.2 366.8H2026C2008.2 366.8 1993.8 381.3 1993.8 399V1074.5H1988.1V399C1988.1 378.1 2005.1 361.1 2026 361.1H2619.2C2640.1 361.1 2657.1 378.1 2657.1 399V1339.8Z" fill="#312113"/>
<path fill-rule="evenodd" clip-rule="evenodd" d="M1723.2 1346.9L1477.8 1372.3C1444.9 1375.6 1415.1 1350.1 1411.5 1315.4L1381.8 1035.3C1380 1018.2 1385.1 1000.9 1395.7 987.8C1405.7 975.5 1419.7 967.9 1434.9 966.4L1857.5 923.5C1890.4 920.2 1920.1 945.7 1923.8 980.3L1953.4 1260.5C1955.3 1277.6 1950.2 1294.9 1939.6 1308C1929.7 1320.2 1915.9 1327.7 1900.7 1329.3C1900.57 1329.37 1900.47 1329.4 1900.4 1329.4L1866.9 1332.5L1883.3 1424.8L1723.2 1346.9ZM1899.9 1324.4C1913.8 1323 1926.6 1316.1 1935.7 1304.8C1945.5 1292.8 1950.2 1276.9 1948.5 1261.1L1918.9 980.9C1915.5 949 1888.2 925.5 1858 928.5L1435.4 971.4C1435.33 971.4 1435.27 971.4 1435.2 971.4C1421.3 972.9 1408.7 979.8 1399.6 991C1389.8 1003 1385.2 1019 1386.9 1034.8L1416.5 1314.9C1419.9 1346.9 1447.2 1370.4 1477.3 1367.4L1724.1 1341.8L1876.7 1416L1861 1328L1899.9 1324.4Z" fill="#312113"/>
<path d="M1897.6 999.8L1927.2 1280C1930.7 1313.2 1907.8 1342.9 1876.4 1346.1L1840.1 1349.4L1856.2 1439.6L1699.9 1363.5L1453.8 1389C1422.3 1392.2 1393.7 1367.6 1390.2 1334.4L1360.6 1054.2C1357 1021 1379.9 991.2 1411.4 988.1L1833.9 945.2C1865.4 942 1894 966.6 1897.6 999.8V999.8Z" fill="#F2CD5D"/>
<path d="M1391.8 1338.6C1395 1369.2 1422.5 1391.5 1453.1 1388.3L1519.6 1381.3L1520.2 1386.2L1453.7 1393.3C1420.3 1396.8 1390.3 1372.5 1386.8 1339.2L1363.4 1118.4L1368.4 1117.9L1391.8 1338.6Z" fill="#312113"/>
<path d="M1801.3 1415.6L1715.8 1374L1717.9 1369.5L1803.4 1411.2L1801.3 1415.6Z" fill="#312113"/>
<path fill-rule="evenodd" clip-rule="evenodd" d="M1578 1254.8C1564.4 1254.8 1553.3 1251 1544.7 1243.6C1534.6 1234.9 1528.6 1221.3 1526.9 1203.1L1526.7 1201.3L1561.9 1194L1562.1 1196C1563.4 1205.2 1565.3 1211.6 1567.8 1215C1571.6 1220.1 1576.8 1222.3 1583.5 1221.7C1590.5 1221 1595 1218.8 1597.4 1214.7C1599.9 1210.5 1600.5 1201.8 1599.3 1188.8L1589.2 1079.1L1626.6 1075.7L1636.5 1183.2C1637.8 1197.1 1637.6 1208.2 1635.8 1216C1633.3 1226.4 1627.9 1235.1 1619.6 1242C1611.3 1248.9 1599.8 1253.1 1585.4 1254.4C1582.87 1254.67 1580.4 1254.8 1578 1254.8V1254.8ZM1530.9 1204.4C1532.8 1220.7 1538.3 1232.9 1547.2 1240.7C1556.5 1248.7 1569.2 1252 1585.1 1250.5C1598.6 1249.3 1609.4 1245.4 1617.1 1239C1624.7 1232.7 1629.8 1224.6 1632 1215.1C1633.7 1207.7 1633.9 1197.1 1632.7 1183.5L1623.1 1079.9L1593.4 1082.7L1603.2 1188.4C1604.5 1202.5 1603.7 1211.7 1600.7 1216.7C1597.7 1221.8 1592 1224.8 1583.9 1225.5C1575.8 1226.3 1569.3 1223.5 1564.7 1217.3C1561.9 1213.6 1559.9 1207.5 1558.6 1198.6L1530.9 1204.4Z" fill="black"/>
<path fill-rule="evenodd" clip-rule="evenodd" d="M1725.6 1241.1C1709.3 1241.1 1695.9 1237.4 1685.6 1230.1C1673 1221.1 1664.6 1207 1660.6 1188.2L1660.2 1186.2L1696.4 1179.3L1696.9 1181C1699.7 1191.4 1704.3 1198.8 1710.4 1203.1C1716.4 1207.4 1724.5 1209.1 1734.2 1208.2C1744.5 1207.3 1752.1 1204.4 1756.8 1199.7C1761.5 1194.9 1763.6 1189.9 1763 1184.3C1762.7 1180.8 1761.5 1178 1759.2 1175.8C1756.9 1173.5 1752.9 1171.6 1747.3 1170.2C1743.3 1169.2 1734.1 1167.6 1719.9 1165.4C1701.2 1162.6 1687.6 1158.1 1679.5 1152.1C1668 1143.6 1661.6 1132.3 1660.3 1118.6C1659.5 1109.7 1661.2 1101.1 1665.5 1093C1669.8 1084.8 1676.6 1078.3 1685.6 1073.4C1694.5 1068.6 1705.6 1065.5 1718.6 1064.3C1739.9 1062.4 1756.7 1065.7 1768.4 1074.1C1780.3 1082.6 1787.3 1094.9 1789.3 1110.6L1789.5 1112.5L1752.4 1117.6L1752 1116C1749.9 1108 1746.4 1102.5 1741.8 1099.5C1737.1 1096.4 1730.2 1095.3 1721.2 1096.1C1711.9 1097 1704.7 1099.5 1699.9 1103.8C1697 1106.3 1695.8 1109.3 1696.1 1113C1696.5 1116.4 1698.1 1119.1 1701.3 1121.2C1705.6 1124.2 1716 1126.9 1732.4 1129.2C1749.2 1131.6 1762 1134.5 1770.3 1138C1778.8 1141.5 1785.8 1146.8 1791.1 1153.8C1796.4 1160.8 1799.6 1169.9 1800.6 1180.8C1801.5 1190.7 1799.6 1200.3 1794.9 1209.4C1790.2 1218.6 1782.9 1225.8 1773.3 1230.9C1763.7 1236 1751.5 1239.2 1736.8 1240.6C1732.93 1240.93 1729.2 1241.1 1725.6 1241.1V1241.1ZM1664.9 1189.3C1668.8 1206.2 1676.5 1218.9 1687.9 1226.9C1699.6 1235.3 1716 1238.6 1736.5 1236.7C1750.6 1235.4 1762.4 1232.3 1771.4 1227.5C1780.4 1222.7 1787.1 1216.1 1791.4 1207.6C1795.8 1199.2 1797.6 1190.3 1796.7 1181.1C1795.8 1171 1792.8 1162.6 1788 1156.2C1783.1 1149.7 1776.7 1144.8 1768.8 1141.6C1760.8 1138.2 1748.3 1135.4 1731.8 1133C1714.6 1130.6 1703.9 1127.8 1699 1124.4C1695 1121.6 1692.7 1117.9 1692.3 1113.3C1691.8 1108.4 1693.5 1104.2 1697.3 1100.9C1702.8 1096.1 1710.7 1093.2 1720.8 1092.2C1730.7 1091.3 1738.5 1092.7 1743.9 1096.2C1749 1099.5 1752.9 1105.3 1755.2 1113.3L1785.2 1109.2C1783 1095.5 1776.6 1084.7 1766.2 1077.3C1755.2 1069.4 1739.3 1066.3 1719 1068.2C1706.5 1069.4 1695.9 1072.3 1687.4 1076.8C1679.1 1081.3 1672.9 1087.4 1669 1094.8C1665 1102.3 1663.4 1110.2 1664.2 1118.2C1665.3 1130.8 1671.3 1141.1 1681.8 1149C1689.4 1154.6 1702.4 1158.9 1720.5 1161.6C1734.8 1163.8 1744.1 1165.4 1748.3 1166.4C1754.6 1168.1 1759.1 1170.2 1762 1173C1764.9 1175.9 1766.5 1179.6 1766.9 1184C1767.5 1190.7 1765.1 1196.9 1759.6 1202.4C1754.2 1207.8 1745.8 1211.1 1734.5 1212.1C1723.9 1213.1 1715 1211.1 1708.1 1206.3C1701.6 1201.7 1696.8 1194.1 1693.6 1183.8L1664.9 1189.3Z" fill="black"/>
<path d="M1582.6 1091.6L1616.1 1088.5L1625.9 1194C1627.17 1207.87 1626.93 1218.6 1625.2 1226.2C1622.8 1236.2 1617.6 1244.53 1609.6 1251.2C1601.53 1257.87 1590.5 1261.87 1576.5 1263.2C1560.03 1264.73 1546.93 1261.3 1537.2 1252.9C1527.47 1244.5 1521.77 1231.4 1520.1 1213.6L1551.5 1207C1552.7 1216.53 1554.7 1223.17 1557.5 1226.9C1561.7 1232.5 1567.53 1234.97 1575 1234.3C1582.47 1233.63 1587.57 1231 1590.3 1226.4C1593.03 1221.87 1593.77 1212.83 1592.5 1199.3L1582.6 1091.6Z" fill="white"/>
<path d="M1653.8 1198.5L1686.3 1192.3C1689.23 1203.1 1693.97 1210.8 1700.5 1215.4C1706.97 1220 1715.33 1221.83 1725.6 1220.9C1736.47 1219.9 1744.43 1216.83 1749.5 1211.7C1754.57 1206.63 1756.8 1201.03 1756.2 1194.9C1755.87 1190.97 1754.4 1187.7 1751.8 1185.1C1749.27 1182.57 1745.03 1180.53 1739.1 1179C1735.03 1178 1725.8 1176.4 1711.4 1174.2C1692.93 1171.4 1679.77 1167.07 1671.9 1161.2C1660.83 1153 1654.7 1142.3 1653.5 1129.1C1652.7 1120.63 1654.37 1112.47 1658.5 1104.6C1662.63 1096.8 1669.03 1090.53 1677.7 1085.8C1686.43 1081.07 1697.2 1078.13 1710 1077C1730.93 1075.07 1747.13 1078.2 1758.6 1086.4C1770 1094.6 1776.67 1106.33 1778.6 1121.6L1745.1 1126.2C1742.83 1117.73 1739.17 1111.83 1734.1 1108.5C1729.03 1105.23 1721.77 1104.03 1712.3 1104.9C1702.5 1105.77 1695 1108.47 1689.8 1113C1686.47 1115.93 1685 1119.57 1685.4 1123.9C1685.8 1127.83 1687.8 1131.03 1691.4 1133.5C1695.93 1136.7 1706.6 1139.47 1723.4 1141.8C1740.13 1144.13 1752.6 1147.03 1760.8 1150.5C1769 1153.9 1775.67 1158.97 1780.8 1165.7C1785.87 1172.43 1788.9 1181.1 1789.9 1191.7C1790.77 1201.23 1788.93 1210.4 1784.4 1219.2C1779.87 1228.07 1772.93 1234.97 1763.6 1239.9C1754.27 1244.83 1742.37 1247.97 1727.9 1249.3C1706.83 1251.23 1690.2 1247.87 1678 1239.2C1665.8 1230.47 1657.73 1216.9 1653.8 1198.5V1198.5Z" fill="white"/>
</g>
<defs>
<linearGradient id="paint0_linear_1_2" x1="84389.7" y1="11868.1" x2="85714.7" y2="11868.1" gradientUnits="userSpaceOnUse">
<stop stop-color="#AACEFF"/>
<stop offset="1" stop-color="#DBE9FF"/>
</linearGradient>
<linearGradient id="paint1_linear_1_2" x1="82747.3" y1="11868.1" x2="84072.2" y2="11868.1" gradientUnits="userSpaceOnUse">
<stop stop-color="#AACEFF"/>
<stop offset="1" stop-color="#DBE9FF"/>
</linearGradient>
<linearGradient id="paint2_linear_1_2" x1="81109.7" y1="11868.1" x2="82434.7" y2="11868.1" gradientUnits="userSpaceOnUse">
<stop stop-color="#AACEFF"/>
<stop offset="1" stop-color="#DBE9FF"/>
</linearGradient>
<linearGradient id="paint3_linear_1_2" x1="79467.3" y1="11868.1" x2="80792.3" y2="11868.1" gradientUnits="userSpaceOnUse">
<stop stop-color="#AACEFF"/>
<stop offset="1" stop-color="#DBE9FF"/>
</linearGradient>
<linearGradient id="paint4_linear_1_2" x1="46569.2" y1="11868.1" x2="47022.9" y2="11868.1" gradientUnits="userSpaceOnUse">
<stop stop-color="#AACEFF"/>
<stop offset="1" stop-color="#DBE9FF"/>
</linearGradient>
<linearGradient id="paint5_linear_1_2" x1="45787.4" y1="11868.1" x2="46236.8" y2="11868.1" gradientUnits="userSpaceOnUse">
<stop stop-color="#AACEFF"/>
<stop offset="1" stop-color="#DBE9FF"/>
</linearGradient>
<linearGradient id="paint6_linear_1_2" x1="45449.5" y1="11868.1" x2="45903.2" y2="11868.1" gradientUnits="userSpaceOnUse">
<stop stop-color="#AACEFF"/>
<stop offset="1" stop-color="#DBE9FF"/>
</linearGradient>
<clipPath id="clip0_1_2">
<rect width="4510" height="3000" fill="white"/>
</clipPath>
</defs>
</svg>
